<svg width="70" height="13" viewBox="0 0 70 13" fill="none" xmlns="http://www.w3.org/2000/svg">
<path d="M7.76 9.344H2.672L1.696 12H0.512L4.592 0.959999H5.856L9.92 12H8.736L7.76 9.344ZM7.424 8.416L5.216 2.368L3.008 8.416H7.424ZM12.8215 5.2C13.1095 4.592 13.5522 4.096 14.1495 3.712C14.7575 3.328 15.4722 3.136 16.2935 3.136C17.0935 3.136 17.8082 3.32267 18.4375 3.696C19.0668 4.05867 19.5575 4.58133 19.9095 5.264C20.2722 5.936 20.4535 6.72 20.4535 7.616C20.4535 8.512 20.2722 9.30133 19.9095 9.984C19.5575 10.6667 19.0615 11.1947 18.4215 11.568C17.7922 11.9413 17.0828 12.128 16.2935 12.128C15.4615 12.128 14.7415 11.9413 14.1335 11.568C13.5362 11.184 13.0988 10.688 12.8215 10.08V12H11.7175V0.16H12.8215V5.2ZM19.3175 7.616C19.3175 6.89067 19.1735 6.26667 18.8855 5.744C18.6082 5.21067 18.2242 4.80533 17.7335 4.528C17.2428 4.25067 16.6882 4.112 16.0695 4.112C15.4722 4.112 14.9228 4.256 14.4215 4.544C13.9308 4.832 13.5415 5.24267 13.2535 5.776C12.9655 6.30933 12.8215 6.928 12.8215 7.632C12.8215 8.336 12.9655 8.95467 13.2535 9.488C13.5415 10.0213 13.9308 10.432 14.4215 10.72C14.9228 11.008 15.4722 11.152 16.0695 11.152C16.6882 11.152 17.2428 11.0133 17.7335 10.736C18.2242 10.448 18.6082 10.0373 18.8855 9.504C19.1735 8.96 19.3175 8.33067 19.3175 7.616ZM26.3384 12.128C25.517 12.128 24.7757 11.9467 24.1144 11.584C23.4637 11.2107 22.9464 10.688 22.5624 10.016C22.189 9.33333 22.0024 8.53867 22.0024 7.632C22.0024 6.72533 22.1944 5.936 22.5784 5.264C22.9624 4.58133 23.485 4.05867 24.1464 3.696C24.8077 3.32267 25.549 3.136 26.3704 3.136C27.1917 3.136 27.933 3.32267 28.5944 3.696C29.2664 4.05867 29.789 4.58133 30.1624 5.264C30.5464 5.936 30.7384 6.72533 30.7384 7.632C30.7384 8.528 30.5464 9.31733 30.1624 10C29.7784 10.6827 29.2504 11.2107 28.5784 11.584C27.9064 11.9467 27.1597 12.128 26.3384 12.128ZM26.3384 11.152C26.9144 11.152 27.4477 11.024 27.9384 10.768C28.429 10.5013 28.8237 10.1067 29.1224 9.584C29.4317 9.05067 29.5864 8.4 29.5864 7.632C29.5864 6.864 29.437 6.21867 29.1384 5.696C28.8397 5.16267 28.445 4.768 27.9544 4.512C27.4637 4.24533 26.9304 4.112 26.3544 4.112C25.7784 4.112 25.245 4.24533 24.7544 4.512C24.2637 4.768 23.869 5.16267 23.5704 5.696C23.2824 6.21867 23.1384 6.864 23.1384 7.632C23.1384 8.4 23.2824 9.05067 23.5704 9.584C23.869 10.1067 24.2584 10.5013 24.7384 10.768C25.229 11.024 25.7624 11.152 26.3384 11.152ZM40.348 3.264V12H39.228V10.464C38.972 11.008 38.5773 11.424 38.044 11.712C37.5107 12 36.9133 12.144 36.252 12.144C35.2067 12.144 34.3533 11.824 33.692 11.184C33.0307 10.5333 32.7 9.59467 32.7 8.368V3.264H33.804V8.24C33.804 9.18933 34.0387 9.91467 34.508 10.416C34.988 10.9173 35.6387 11.168 36.46 11.168C37.3027 11.168 37.9747 10.9013 38.476 10.368C38.9773 9.83467 39.228 9.05067 39.228 8.016V3.264H40.348ZM44.361 4.208V9.632C44.361 10.1653 44.4623 10.5333 44.665 10.736C44.8677 10.9387 45.225 11.04 45.737 11.04H46.761V12H45.561C44.7717 12 44.185 11.8187 43.801 11.456C43.417 11.0827 43.225 10.4747 43.225 9.632V4.208H42.009V3.264H43.225V1.072H44.361V3.264H46.761V4.208H44.361ZM54.0707 0.815999V7.856C54.0707 8.96533 54.3321 9.78667 54.8548 10.32C55.3881 10.8533 56.1134 11.12 57.0308 11.12C57.9481 11.12 58.6628 10.8587 59.1748 10.336C59.6974 9.80267 59.9588 8.976 59.9588 7.856V0.815999H61.0788V7.84C61.0788 9.25867 60.7001 10.3253 59.9427 11.04C59.1961 11.7547 58.2201 12.112 57.0148 12.112C55.8094 12.112 54.8281 11.7547 54.0707 11.04C53.3241 10.3253 52.9508 9.25867 52.9508 7.84V0.815999H54.0707ZM66.5849 12.128C65.5822 12.128 64.7609 11.8987 64.1209 11.44C63.4915 10.9707 63.1395 10.336 63.0649 9.536H64.2169C64.2702 10.0267 64.4995 10.4267 64.9049 10.736C65.3209 11.0347 65.8755 11.184 66.5689 11.184C67.1769 11.184 67.6515 11.04 67.9929 10.752C68.3449 10.464 68.5209 10.1067 68.5209 9.68C68.5209 9.38133 68.4249 9.136 68.2329 8.944C68.0409 8.752 67.7955 8.60267 67.4969 8.496C67.2089 8.37867 66.8142 8.256 66.3129 8.128C65.6622 7.95733 65.1342 7.78667 64.7289 7.616C64.3235 7.44533 63.9769 7.19467 63.6889 6.864C63.4115 6.52267 63.2729 6.06933 63.2729 5.504C63.2729 5.07733 63.4009 4.68267 63.6569 4.32C63.9129 3.95733 64.2755 3.66933 64.7449 3.456C65.2142 3.24267 65.7475 3.136 66.3449 3.136C67.2835 3.136 68.0409 3.376 68.6169 3.856C69.1929 4.32533 69.5022 4.976 69.5449 5.808H68.4249C68.3929 5.296 68.1902 4.88533 67.8169 4.576C67.4542 4.256 66.9529 4.096 66.3129 4.096C65.7475 4.096 65.2889 4.22933 64.9369 4.496C64.5849 4.76267 64.4089 5.09333 64.4089 5.488C64.4089 5.82933 64.5102 6.112 64.7129 6.336C64.9262 6.54933 65.1875 6.72 65.4969 6.848C65.8062 6.96533 66.2222 7.09867 66.7449 7.248C67.3742 7.41867 67.8755 7.584 68.2489 7.744C68.6222 7.904 68.9422 8.13867 69.2089 8.448C69.4755 8.75733 69.6142 9.168 69.6249 9.68C69.6249 10.1493 69.4969 10.5707 69.2409 10.944C68.9849 11.3067 68.6275 11.5947 68.1689 11.808C67.7102 12.0213 67.1822 12.128 66.5849 12.128Z" fill="#E5E5E5"/>
</svg>
