<svg width="118" height="13" viewBox="0 0 118 13" fill="none" xmlns="http://www.w3.org/2000/svg">
<path d="M7.046 6.574C7.718 6.694 8.288 7.048 8.756 7.636C9.224 8.224 9.458 8.89 9.458 9.634C9.458 10.27 9.29 10.846 8.954 11.362C8.63 11.866 8.156 12.268 7.532 12.568C6.908 12.856 6.182 13 5.354 13H0.35V0.489999H5.12C5.972 0.489999 6.704 0.633999 7.316 0.922C7.928 1.21 8.39 1.6 8.702 2.092C9.014 2.572 9.17 3.112 9.17 3.712C9.17 4.432 8.978 5.032 8.594 5.512C8.21 5.992 7.694 6.346 7.046 6.574ZM2.402 5.746H4.94C5.612 5.746 6.134 5.596 6.506 5.296C6.89 4.984 7.082 4.54 7.082 3.964C7.082 3.4 6.89 2.962 6.506 2.65C6.134 2.326 5.612 2.164 4.94 2.164H2.402V5.746ZM5.174 11.326C5.87 11.326 6.416 11.158 6.812 10.822C7.208 10.486 7.406 10.018 7.406 9.418C7.406 8.806 7.196 8.32 6.776 7.96C6.356 7.6 5.798 7.42 5.102 7.42H2.402V11.326H5.174ZM13.7399 0.489999V13H11.6879V0.489999H13.7399ZM18.486 11.344H22.716V13H16.434V0.489999H18.486V11.344ZM26.484 11.344H30.714V13H24.432V0.489999H26.484V11.344ZM45.8539 4.216C45.8539 4.852 45.7039 5.452 45.4039 6.016C45.1039 6.58 44.6239 7.042 43.9639 7.402C43.3039 7.75 42.4579 7.924 41.4259 7.924H39.1579V13H37.1059V0.489999H41.4259C42.3859 0.489999 43.1959 0.657999 43.8559 0.993999C44.5279 1.318 45.0259 1.762 45.3499 2.326C45.6859 2.89 45.8539 3.52 45.8539 4.216ZM41.4259 6.25C42.2059 6.25 42.7879 6.076 43.1719 5.728C43.5559 5.368 43.7479 4.864 43.7479 4.216C43.7479 2.848 42.9739 2.164 41.4259 2.164H39.1579V6.25H41.4259ZM55.3529 10.444H50.1149L49.2149 13H47.0729L51.5549 0.471999H53.9309L58.4129 13H56.2529L55.3529 10.444ZM54.7769 8.77L52.7429 2.956L50.6909 8.77H54.7769ZM69.6317 0.489999L65.4917 8.464V13H63.4397V8.464L59.2817 0.489999H61.5677L64.4657 6.628L67.3637 0.489999H69.6317ZM84.4362 0.489999V13H82.3842V4.432L78.5682 13H77.1462L73.3122 4.432V13H71.2602V0.489999H73.4742L77.8662 10.3L82.2402 0.489999H84.4362ZM89.1852 2.146V5.818H93.5052V7.492H89.1852V11.326H94.0452V13H87.1332V0.471999H94.0452V2.146H89.1852ZM106.851 13H104.799L98.6247 3.658V13H96.5727V0.471999H98.6247L104.799 9.796V0.471999H106.851V13ZM117.627 0.489999V2.164H114.297V13H112.245V2.164H108.897V0.489999H117.627Z" fill="white"/>
</svg>
