<svg width="88" height="13" viewBox="0 0 88 13" fill="none" xmlns="http://www.w3.org/2000/svg">
<path d="M0.768 6.4C0.768 5.30133 1.008 4.32 1.488 3.456C1.968 2.58133 2.624 1.904 3.456 1.424C4.288 0.933333 5.216 0.688 6.24 0.688C7.488 0.688 8.55467 0.986666 9.44 1.584C10.336 2.17067 10.9867 3.00267 11.392 4.08H10.08C9.76 3.32267 9.26933 2.73067 8.608 2.304C7.95733 1.87733 7.168 1.664 6.24 1.664C5.41867 1.664 4.67733 1.856 4.016 2.24C3.36533 2.624 2.85333 3.17867 2.48 3.904C2.10667 4.61867 1.92 5.45067 1.92 6.4C1.92 7.34933 2.10667 8.18133 2.48 8.896C2.85333 9.61067 3.36533 10.16 4.016 10.544C4.67733 10.928 5.41867 11.12 6.24 11.12C7.168 11.12 7.95733 10.912 8.608 10.496C9.26933 10.0693 9.76 9.48267 10.08 8.736H11.392C10.9867 9.80267 10.336 10.6293 9.44 11.216C8.544 11.8027 7.47733 12.096 6.24 12.096C5.216 12.096 4.288 11.856 3.456 11.376C2.624 10.8853 1.968 10.208 1.488 9.344C1.008 8.48 0.768 7.49867 0.768 6.4ZM17.4478 12.128C16.6264 12.128 15.8851 11.9467 15.2238 11.584C14.5731 11.2107 14.0558 10.688 13.6718 10.016C13.2984 9.33333 13.1118 8.53867 13.1118 7.632C13.1118 6.72533 13.3038 5.936 13.6878 5.264C14.0718 4.58133 14.5944 4.05867 15.2558 3.696C15.9171 3.32267 16.6584 3.136 17.4798 3.136C18.3011 3.136 19.0424 3.32267 19.7038 3.696C20.3758 4.05867 20.8984 4.58133 21.2718 5.264C21.6558 5.936 21.8478 6.72533 21.8478 7.632C21.8478 8.528 21.6558 9.31733 21.2718 10C20.8878 10.6827 20.3598 11.2107 19.6878 11.584C19.0158 11.9467 18.2691 12.128 17.4478 12.128ZM17.4478 11.152C18.0238 11.152 18.5571 11.024 19.0478 10.768C19.5384 10.5013 19.9331 10.1067 20.2318 9.584C20.5411 9.05067 20.6958 8.4 20.6958 7.632C20.6958 6.864 20.5464 6.21867 20.2478 5.696C19.9491 5.16267 19.5544 4.768 19.0638 4.512C18.5731 4.24533 18.0398 4.112 17.4638 4.112C16.8878 4.112 16.3544 4.24533 15.8638 4.512C15.3731 4.768 14.9784 5.16267 14.6798 5.696C14.3918 6.21867 14.2478 6.864 14.2478 7.632C14.2478 8.4 14.3918 9.05067 14.6798 9.584C14.9784 10.1067 15.3678 10.5013 15.8478 10.768C16.3384 11.024 16.8718 11.152 17.4478 11.152ZM27.9854 3.104C29.0307 3.104 29.884 3.42933 30.5454 4.08C31.2067 4.72 31.5374 5.65333 31.5374 6.88V12H30.4334V7.008C30.4334 6.05867 30.1934 5.33333 29.7134 4.832C29.244 4.33067 28.5987 4.08 27.7774 4.08C26.9347 4.08 26.2627 4.34667 25.7614 4.88C25.26 5.41333 25.0094 6.19733 25.0094 7.232V12H23.8894V3.264H25.0094V4.752C25.2867 4.21867 25.6867 3.81333 26.2094 3.536C26.732 3.248 27.324 3.104 27.9854 3.104ZM35.4704 4.208V9.632C35.4704 10.1653 35.5717 10.5333 35.7744 10.736C35.977 10.9387 36.3344 11.04 36.8464 11.04H37.8704V12H36.6704C35.881 12 35.2944 11.8187 34.9104 11.456C34.5264 11.0827 34.3344 10.4747 34.3344 9.632V4.208H33.1184V3.264H34.3344V1.072H35.4704V3.264H37.8704V4.208H35.4704ZM39.2055 7.616C39.2055 6.72 39.3815 5.936 39.7335 5.264C40.0962 4.58133 40.5922 4.05867 41.2215 3.696C41.8615 3.32267 42.5815 3.136 43.3815 3.136C44.2135 3.136 44.9282 3.328 45.5255 3.712C46.1335 4.096 46.5708 4.58667 46.8375 5.184V3.264H47.9575V12H46.8375V10.064C46.5602 10.6613 46.1175 11.1573 45.5095 11.552C44.9122 11.936 44.1975 12.128 43.3655 12.128C42.5762 12.128 41.8615 11.9413 41.2215 11.568C40.5922 11.1947 40.0962 10.6667 39.7335 9.984C39.3815 9.30133 39.2055 8.512 39.2055 7.616ZM46.8375 7.632C46.8375 6.928 46.6935 6.30933 46.4055 5.776C46.1175 5.24267 45.7228 4.832 45.2215 4.544C44.7308 4.256 44.1868 4.112 43.5895 4.112C42.9708 4.112 42.4162 4.25067 41.9255 4.528C41.4348 4.80533 41.0455 5.21067 40.7575 5.744C40.4802 6.26667 40.3415 6.89067 40.3415 7.616C40.3415 8.33067 40.4802 8.96 40.7575 9.504C41.0455 10.0373 41.4348 10.448 41.9255 10.736C42.4162 11.0133 42.9708 11.152 43.5895 11.152C44.1868 11.152 44.7308 11.008 45.2215 10.72C45.7228 10.432 46.1175 10.0213 46.4055 9.488C46.6935 8.95467 46.8375 8.336 46.8375 7.632ZM50.0024 7.632C50.0024 6.72533 50.1837 5.936 50.5464 5.264C50.909 4.58133 51.4104 4.05867 52.0504 3.696C52.6904 3.32267 53.421 3.136 54.2424 3.136C55.3197 3.136 56.205 3.40267 56.8984 3.936C57.6024 4.46933 58.0557 5.19467 58.2584 6.112H57.0584C56.909 5.48267 56.5837 4.992 56.0824 4.64C55.5917 4.27733 54.9784 4.096 54.2424 4.096C53.6557 4.096 53.1277 4.22933 52.6584 4.496C52.189 4.76267 51.8157 5.16267 51.5384 5.696C51.2717 6.21867 51.1384 6.864 51.1384 7.632C51.1384 8.4 51.2717 9.05067 51.5384 9.584C51.8157 10.1173 52.189 10.5173 52.6584 10.784C53.1277 11.0507 53.6557 11.184 54.2424 11.184C54.9784 11.184 55.5917 11.008 56.0824 10.656C56.5837 10.2933 56.909 9.792 57.0584 9.152H58.2584C58.0557 10.048 57.6024 10.768 56.8984 11.312C56.1944 11.856 55.309 12.128 54.2424 12.128C53.421 12.128 52.6904 11.9467 52.0504 11.584C51.4104 11.2107 50.909 10.688 50.5464 10.016C50.1837 9.33333 50.0024 8.53867 50.0024 7.632ZM61.7829 4.208V9.632C61.7829 10.1653 61.8842 10.5333 62.0869 10.736C62.2895 10.9387 62.6469 11.04 63.1589 11.04H64.1829V12H62.9829C62.1935 12 61.6069 11.8187 61.2229 11.456C60.8389 11.0827 60.6469 10.4747 60.6469 9.632V4.208H59.4309V3.264H60.6469V1.072H61.7829V3.264H64.1829V4.208H61.7829ZM71.4926 0.815999V7.856C71.4926 8.96533 71.754 9.78667 72.2766 10.32C72.81 10.8533 73.5353 11.12 74.4526 11.12C75.37 11.12 76.0846 10.8587 76.5966 10.336C77.1193 9.80267 77.3806 8.976 77.3806 7.856V0.815999H78.5006V7.84C78.5006 9.25867 78.122 10.3253 77.3646 11.04C76.618 11.7547 75.642 12.112 74.4366 12.112C73.2313 12.112 72.25 11.7547 71.4926 11.04C70.746 10.3253 70.3726 9.25867 70.3726 7.84V0.815999H71.4926ZM84.0068 12.128C83.0041 12.128 82.1828 11.8987 81.5428 11.44C80.9134 10.9707 80.5614 10.336 80.4868 9.536H81.6388C81.6921 10.0267 81.9214 10.4267 82.3268 10.736C82.7428 11.0347 83.2974 11.184 83.9908 11.184C84.5988 11.184 85.0734 11.04 85.4148 10.752C85.7668 10.464 85.9428 10.1067 85.9428 9.68C85.9428 9.38133 85.8468 9.136 85.6548 8.944C85.4628 8.752 85.2174 8.60267 84.9188 8.496C84.6308 8.37867 84.2361 8.256 83.7348 8.128C83.0841 7.95733 82.5561 7.78667 82.1508 7.616C81.7454 7.44533 81.3988 7.19467 81.1108 6.864C80.8334 6.52267 80.6948 6.06933 80.6948 5.504C80.6948 5.07733 80.8228 4.68267 81.0788 4.32C81.3348 3.95733 81.6974 3.66933 82.1668 3.456C82.6361 3.24267 83.1694 3.136 83.7668 3.136C84.7054 3.136 85.4628 3.376 86.0388 3.856C86.6148 4.32533 86.9241 4.976 86.9668 5.808H85.8468C85.8148 5.296 85.6121 4.88533 85.2388 4.576C84.8761 4.256 84.3748 4.096 83.7348 4.096C83.1694 4.096 82.7108 4.22933 82.3588 4.496C82.0068 4.76267 81.8307 5.09333 81.8307 5.488C81.8307 5.82933 81.9321 6.112 82.1348 6.336C82.3481 6.54933 82.6094 6.72 82.9188 6.848C83.2281 6.96533 83.6441 7.09867 84.1668 7.248C84.7961 7.41867 85.2974 7.584 85.6708 7.744C86.0441 7.904 86.3641 8.13867 86.6308 8.448C86.8974 8.75733 87.0361 9.168 87.0468 9.68C87.0468 10.1493 86.9188 10.5707 86.6628 10.944C86.4068 11.3067 86.0494 11.5947 85.5908 11.808C85.1321 12.0213 84.6041 12.128 84.0068 12.128Z" fill="#E5E5E5"/>
</svg>
