<svg width="117" height="14" viewBox="0 0 117 14" fill="none" xmlns="http://www.w3.org/2000/svg">
<path d="M2.402 2.146V5.818H6.722V7.492H2.402V11.326H7.262V13H0.35V0.471999H7.262V2.146H2.402ZM11.8415 11.344H16.0715V13H9.78945V0.489999H11.8415V11.344ZM19.8395 2.146V5.818H24.1595V7.492H19.8395V11.326H24.6995V13H17.7875V0.471999H24.6995V2.146H19.8395ZM26.543 6.718C26.543 5.494 26.825 4.396 27.389 3.424C27.965 2.452 28.739 1.696 29.711 1.156C30.695 0.603999 31.769 0.327999 32.933 0.327999C34.265 0.327999 35.447 0.657999 36.479 1.318C37.523 1.966 38.279 2.89 38.747 4.09H36.281C35.957 3.43 35.507 2.938 34.931 2.614C34.355 2.29 33.689 2.128 32.933 2.128C32.105 2.128 31.367 2.314 30.719 2.686C30.071 3.058 29.561 3.592 29.189 4.288C28.829 4.984 28.649 5.794 28.649 6.718C28.649 7.642 28.829 8.452 29.189 9.148C29.561 9.844 30.071 10.384 30.719 10.768C31.367 11.14 32.105 11.326 32.933 11.326C33.689 11.326 34.355 11.164 34.931 10.84C35.507 10.516 35.957 10.024 36.281 9.364H38.747C38.279 10.564 37.523 11.488 36.479 12.136C35.447 12.784 34.265 13.108 32.933 13.108C31.757 13.108 30.683 12.838 29.711 12.298C28.739 11.746 27.965 10.984 27.389 10.012C26.825 9.04 26.543 7.942 26.543 6.718ZM49.2308 0.489999V2.164H45.9008V13H43.8488V2.164H40.5008V0.489999H49.2308ZM57.807 13L54.927 7.996H53.361V13H51.309V0.489999H55.629C56.589 0.489999 57.399 0.657999 58.059 0.993999C58.731 1.33 59.229 1.78 59.553 2.344C59.889 2.908 60.057 3.538 60.057 4.234C60.057 5.05 59.817 5.794 59.337 6.466C58.869 7.126 58.143 7.576 57.159 7.816L60.255 13H57.807ZM53.361 6.358H55.629C56.397 6.358 56.973 6.166 57.357 5.782C57.753 5.398 57.951 4.882 57.951 4.234C57.951 3.586 57.759 3.082 57.375 2.722C56.991 2.35 56.409 2.164 55.629 2.164H53.361V6.358ZM68.388 13.126C67.224 13.126 66.15 12.856 65.166 12.316C64.194 11.764 63.42 11.002 62.844 10.03C62.28 9.046 61.998 7.942 61.998 6.718C61.998 5.494 62.28 4.396 62.844 3.424C63.42 2.452 64.194 1.696 65.166 1.156C66.15 0.603999 67.224 0.327999 68.388 0.327999C69.564 0.327999 70.638 0.603999 71.61 1.156C72.594 1.696 73.368 2.452 73.932 3.424C74.496 4.396 74.778 5.494 74.778 6.718C74.778 7.942 74.496 9.046 73.932 10.03C73.368 11.002 72.594 11.764 71.61 12.316C70.638 12.856 69.564 13.126 68.388 13.126ZM68.388 11.344C69.216 11.344 69.954 11.158 70.602 10.786C71.25 10.402 71.754 9.862 72.114 9.166C72.486 8.458 72.672 7.642 72.672 6.718C72.672 5.794 72.486 4.984 72.114 4.288C71.754 3.592 71.25 3.058 70.602 2.686C69.954 2.314 69.216 2.128 68.388 2.128C67.56 2.128 66.822 2.314 66.174 2.686C65.526 3.058 65.016 3.592 64.644 4.288C64.284 4.984 64.104 5.794 64.104 6.718C64.104 7.642 64.284 8.458 64.644 9.166C65.016 9.862 65.526 10.402 66.174 10.786C66.822 11.158 67.56 11.344 68.388 11.344ZM87.0753 13H85.0233L78.8493 3.658V13H76.7973V0.471999H78.8493L85.0233 9.796V0.471999H87.0753V13ZM91.8219 0.489999V13H89.7699V0.489999H91.8219ZM93.832 6.718C93.832 5.494 94.114 4.396 94.678 3.424C95.254 2.452 96.028 1.696 97 1.156C97.984 0.603999 99.058 0.327999 100.222 0.327999C101.554 0.327999 102.736 0.657999 103.768 1.318C104.812 1.966 105.568 2.89 106.036 4.09H103.57C103.246 3.43 102.796 2.938 102.22 2.614C101.644 2.29 100.978 2.128 100.222 2.128C99.394 2.128 98.656 2.314 98.008 2.686C97.36 3.058 96.85 3.592 96.478 4.288C96.118 4.984 95.938 5.794 95.938 6.718C95.938 7.642 96.118 8.452 96.478 9.148C96.85 9.844 97.36 10.384 98.008 10.768C98.656 11.14 99.394 11.326 100.222 11.326C100.978 11.326 101.644 11.164 102.22 10.84C102.796 10.516 103.246 10.024 103.57 9.364H106.036C105.568 10.564 104.812 11.488 103.768 12.136C102.736 12.784 101.554 13.108 100.222 13.108C99.046 13.108 97.972 12.838 97 12.298C96.028 11.746 95.254 10.984 94.678 10.012C94.114 9.04 93.832 7.942 93.832 6.718ZM112.56 13.126C111.72 13.126 110.964 12.982 110.292 12.694C109.62 12.394 109.092 11.974 108.708 11.434C108.324 10.894 108.132 10.264 108.132 9.544H110.328C110.376 10.084 110.586 10.528 110.958 10.876C111.342 11.224 111.876 11.398 112.56 11.398C113.268 11.398 113.82 11.23 114.216 10.894C114.612 10.546 114.81 10.102 114.81 9.562C114.81 9.142 114.684 8.8 114.432 8.536C114.192 8.272 113.886 8.068 113.514 7.924C113.154 7.78 112.65 7.624 112.002 7.456C111.186 7.24 110.52 7.024 110.004 6.808C109.5 6.58 109.068 6.232 108.708 5.764C108.348 5.296 108.168 4.672 108.168 3.892C108.168 3.172 108.348 2.542 108.708 2.002C109.068 1.462 109.572 1.048 110.22 0.76C110.868 0.471999 111.618 0.327999 112.47 0.327999C113.682 0.327999 114.672 0.633999 115.44 1.246C116.22 1.846 116.652 2.674 116.736 3.73H114.468C114.432 3.274 114.216 2.884 113.82 2.56C113.424 2.236 112.902 2.074 112.254 2.074C111.666 2.074 111.186 2.224 110.814 2.524C110.442 2.824 110.256 3.256 110.256 3.82C110.256 4.204 110.37 4.522 110.598 4.774C110.838 5.014 111.138 5.206 111.498 5.35C111.858 5.494 112.35 5.65 112.974 5.818C113.802 6.046 114.474 6.274 114.99 6.502C115.518 6.73 115.962 7.084 116.322 7.564C116.694 8.032 116.88 8.662 116.88 9.454C116.88 10.09 116.706 10.69 116.358 11.254C116.022 11.818 115.524 12.274 114.864 12.622C114.216 12.958 113.448 13.126 112.56 13.126Z" fill="white"/>
</svg>
