<svg width="198" height="14" viewBox="0 0 198 14" fill="none" xmlns="http://www.w3.org/2000/svg">
<path d="M1.7 1.444V6.142H6.47V7.186H1.7V11.956H7.01V13H0.44V0.399999H7.01V1.444H1.7ZM24.3787 13H23.1187L16.1527 2.416V13H14.8927V0.417999H16.1527L23.1187 10.984V0.417999H24.3787V13ZM36.3586 0.417999C37.7506 0.417999 38.9446 0.669999 39.9406 1.174C40.9366 1.678 41.6986 2.404 42.2266 3.352C42.7546 4.3 43.0186 5.428 43.0186 6.736C43.0186 8.032 42.7546 9.154 42.2266 10.102C41.6986 11.038 40.9366 11.758 39.9406 12.262C38.9446 12.754 37.7506 13 36.3586 13H32.6326V0.417999H36.3586ZM36.3586 11.956C38.1106 11.956 39.4426 11.5 40.3546 10.588C41.2786 9.664 41.7406 8.38 41.7406 6.736C41.7406 5.08 41.2786 3.79 40.3546 2.866C39.4426 1.93 38.1106 1.462 36.3586 1.462H33.8926V11.956H36.3586ZM66.733 13.126C65.569 13.126 64.513 12.856 63.565 12.316C62.617 11.764 61.867 11.002 61.315 10.03C60.775 9.046 60.505 7.936 60.505 6.7C60.505 5.464 60.775 4.36 61.315 3.388C61.867 2.404 62.617 1.642 63.565 1.102C64.513 0.55 65.569 0.274 66.733 0.274C67.909 0.274 68.971 0.55 69.919 1.102C70.867 1.642 71.611 2.404 72.151 3.388C72.691 4.36 72.961 5.464 72.961 6.7C72.961 7.936 72.691 9.046 72.151 10.03C71.611 11.002 70.867 11.764 69.919 12.316C68.971 12.856 67.909 13.126 66.733 13.126ZM66.733 12.028C67.669 12.028 68.509 11.812 69.253 11.38C69.997 10.948 70.585 10.33 71.017 9.526C71.449 8.71 71.665 7.768 71.665 6.7C71.665 5.632 71.449 4.696 71.017 3.892C70.585 3.088 69.997 2.47 69.253 2.038C68.509 1.606 67.669 1.39 66.733 1.39C65.797 1.39 64.957 1.606 64.213 2.038C63.469 2.47 62.881 3.088 62.449 3.892C62.017 4.696 61.801 5.632 61.801 6.7C61.801 7.768 62.017 8.71 62.449 9.526C62.881 10.33 63.469 10.948 64.213 11.38C64.957 11.812 65.797 12.028 66.733 12.028ZM87.4706 0.417999V1.462H81.9266V6.16H86.6066V7.204H81.9266V13H80.6666V0.417999H87.4706ZM109.099 13.126C108.271 13.126 107.539 12.982 106.903 12.694C106.279 12.406 105.787 12.004 105.427 11.488C105.067 10.972 104.875 10.396 104.851 9.76H106.183C106.243 10.372 106.513 10.912 106.993 11.38C107.473 11.836 108.175 12.064 109.099 12.064C109.951 12.064 110.623 11.848 111.115 11.416C111.619 10.972 111.871 10.414 111.871 9.742C111.871 9.202 111.733 8.77 111.457 8.446C111.181 8.11 110.839 7.864 110.431 7.708C110.023 7.54 109.459 7.36 108.739 7.168C107.899 6.94 107.233 6.718 106.741 6.502C106.249 6.286 105.829 5.95 105.481 5.494C105.133 5.038 104.959 4.42 104.959 3.64C104.959 2.992 105.127 2.416 105.463 1.912C105.799 1.396 106.273 0.993999 106.885 0.705999C107.497 0.418 108.199 0.274 108.991 0.274C110.155 0.274 111.091 0.562 111.799 1.138C112.519 1.702 112.933 2.434 113.041 3.334H111.673C111.589 2.818 111.307 2.362 110.827 1.966C110.347 1.558 109.699 1.354 108.883 1.354C108.127 1.354 107.497 1.558 106.993 1.966C106.489 2.362 106.237 2.908 106.237 3.604C106.237 4.132 106.375 4.558 106.651 4.882C106.927 5.206 107.269 5.452 107.677 5.62C108.097 5.788 108.661 5.968 109.369 6.16C110.185 6.388 110.845 6.616 111.349 6.844C111.853 7.06 112.279 7.396 112.627 7.852C112.975 8.308 113.149 8.92 113.149 9.688C113.149 10.276 112.993 10.834 112.681 11.362C112.369 11.89 111.907 12.316 111.295 12.64C110.683 12.964 109.951 13.126 109.099 13.126ZM122.244 1.444V6.142H127.014V7.186H122.244V11.956H127.554V13H120.984V0.399999H127.554V1.444H122.244ZM142.726 10.012H137.002L135.904 13H134.572L139.162 0.579999H140.584L145.156 13H143.824L142.726 10.012ZM142.348 8.968L139.864 2.164L137.38 8.968H142.348ZM156.395 13.126C155.567 13.126 154.835 12.982 154.199 12.694C153.575 12.406 153.083 12.004 152.723 11.488C152.363 10.972 152.171 10.396 152.147 9.76H153.479C153.539 10.372 153.809 10.912 154.289 11.38C154.769 11.836 155.471 12.064 156.395 12.064C157.247 12.064 157.919 11.848 158.411 11.416C158.915 10.972 159.167 10.414 159.167 9.742C159.167 9.202 159.029 8.77 158.753 8.446C158.477 8.11 158.135 7.864 157.727 7.708C157.319 7.54 156.755 7.36 156.035 7.168C155.195 6.94 154.529 6.718 154.037 6.502C153.545 6.286 153.125 5.95 152.777 5.494C152.429 5.038 152.255 4.42 152.255 3.64C152.255 2.992 152.423 2.416 152.759 1.912C153.095 1.396 153.569 0.993999 154.181 0.705999C154.793 0.418 155.495 0.274 156.287 0.274C157.451 0.274 158.387 0.562 159.095 1.138C159.815 1.702 160.229 2.434 160.337 3.334H158.969C158.885 2.818 158.603 2.362 158.123 1.966C157.643 1.558 156.995 1.354 156.179 1.354C155.423 1.354 154.793 1.558 154.289 1.966C153.785 2.362 153.533 2.908 153.533 3.604C153.533 4.132 153.671 4.558 153.947 4.882C154.223 5.206 154.565 5.452 154.973 5.62C155.393 5.788 155.957 5.968 156.665 6.16C157.481 6.388 158.141 6.616 158.645 6.844C159.149 7.06 159.575 7.396 159.923 7.852C160.271 8.308 160.445 8.92 160.445 9.688C160.445 10.276 160.289 10.834 159.977 11.362C159.665 11.89 159.203 12.316 158.591 12.64C157.979 12.964 157.247 13.126 156.395 13.126ZM173.931 13.126C172.767 13.126 171.711 12.856 170.763 12.316C169.815 11.764 169.065 11.002 168.513 10.03C167.973 9.046 167.703 7.936 167.703 6.7C167.703 5.464 167.973 4.36 168.513 3.388C169.065 2.404 169.815 1.642 170.763 1.102C171.711 0.55 172.767 0.274 173.931 0.274C175.107 0.274 176.169 0.55 177.117 1.102C178.065 1.642 178.809 2.404 179.349 3.388C179.889 4.36 180.159 5.464 180.159 6.7C180.159 7.936 179.889 9.046 179.349 10.03C178.809 11.002 178.065 11.764 177.117 12.316C176.169 12.856 175.107 13.126 173.931 13.126ZM173.931 12.028C174.867 12.028 175.707 11.812 176.451 11.38C177.195 10.948 177.783 10.33 178.215 9.526C178.647 8.71 178.863 7.768 178.863 6.7C178.863 5.632 178.647 4.696 178.215 3.892C177.783 3.088 177.195 2.47 176.451 2.038C175.707 1.606 174.867 1.39 173.931 1.39C172.995 1.39 172.155 1.606 171.411 2.038C170.667 2.47 170.079 3.088 169.647 3.892C169.215 4.696 168.999 5.632 168.999 6.7C168.999 7.768 169.215 8.71 169.647 9.526C170.079 10.33 170.667 10.948 171.411 11.38C172.155 11.812 172.995 12.028 173.931 12.028ZM197.351 13H196.091L189.125 2.416V13H187.865V0.417999H189.125L196.091 10.984V0.417999H197.351V13Z" fill="#14213D"/>
</svg>
