<svg width="75" height="14" viewBox="0 0 75 14" fill="none" xmlns="http://www.w3.org/2000/svg">
<path d="M7.712 0.489999V2.164H2.402V5.854H6.542V7.528H2.402V13H0.35V0.489999H7.712ZM17.1557 10.444H11.9177L11.0177 13H8.87567L13.3577 0.471999H15.7337L20.2157 13H18.0557L17.1557 10.444ZM16.5797 8.77L14.5457 2.956L12.4937 8.77H16.5797ZM26.2865 13.126C25.4465 13.126 24.6905 12.982 24.0185 12.694C23.3465 12.394 22.8185 11.974 22.4345 11.434C22.0505 10.894 21.8585 10.264 21.8585 9.544H24.0545C24.1025 10.084 24.3125 10.528 24.6845 10.876C25.0685 11.224 25.6025 11.398 26.2865 11.398C26.9945 11.398 27.5465 11.23 27.9425 10.894C28.3385 10.546 28.5365 10.102 28.5365 9.562C28.5365 9.142 28.4105 8.8 28.1585 8.536C27.9185 8.272 27.6125 8.068 27.2405 7.924C26.8805 7.78 26.3765 7.624 25.7285 7.456C24.9125 7.24 24.2465 7.024 23.7305 6.808C23.2265 6.58 22.7945 6.232 22.4345 5.764C22.0745 5.296 21.8945 4.672 21.8945 3.892C21.8945 3.172 22.0745 2.542 22.4345 2.002C22.7945 1.462 23.2985 1.048 23.9465 0.76C24.5945 0.471999 25.3445 0.327999 26.1965 0.327999C27.4085 0.327999 28.3985 0.633999 29.1665 1.246C29.9465 1.846 30.3785 2.674 30.4625 3.73H28.1945C28.1585 3.274 27.9425 2.884 27.5465 2.56C27.1505 2.236 26.6285 2.074 25.9805 2.074C25.3925 2.074 24.9125 2.224 24.5405 2.524C24.1685 2.824 23.9825 3.256 23.9825 3.82C23.9825 4.204 24.0965 4.522 24.3245 4.774C24.5645 5.014 24.8645 5.206 25.2245 5.35C25.5845 5.494 26.0765 5.65 26.7005 5.818C27.5285 6.046 28.2005 6.274 28.7165 6.502C29.2445 6.73 29.6885 7.084 30.0485 7.564C30.4205 8.032 30.6065 8.662 30.6065 9.454C30.6065 10.09 30.4325 10.69 30.0845 11.254C29.7485 11.818 29.2505 12.274 28.5905 12.622C27.9425 12.958 27.1745 13.126 26.2865 13.126ZM43.0177 0.489999V13H40.9657V7.528H35.0797V13H33.0277V0.489999H35.0797V5.854H40.9657V0.489999H43.0177ZM47.7711 0.489999V13H45.7191V0.489999H47.7711ZM56.1712 13.126C55.0072 13.126 53.9332 12.856 52.9492 12.316C51.9772 11.764 51.2032 11.002 50.6272 10.03C50.0632 9.046 49.7812 7.942 49.7812 6.718C49.7812 5.494 50.0632 4.396 50.6272 3.424C51.2032 2.452 51.9772 1.696 52.9492 1.156C53.9332 0.603999 55.0072 0.327999 56.1712 0.327999C57.3472 0.327999 58.4212 0.603999 59.3932 1.156C60.3772 1.696 61.1512 2.452 61.7152 3.424C62.2792 4.396 62.5612 5.494 62.5612 6.718C62.5612 7.942 62.2792 9.046 61.7152 10.03C61.1512 11.002 60.3772 11.764 59.3932 12.316C58.4212 12.856 57.3472 13.126 56.1712 13.126ZM56.1712 11.344C56.9992 11.344 57.7372 11.158 58.3852 10.786C59.0332 10.402 59.5372 9.862 59.8972 9.166C60.2692 8.458 60.4552 7.642 60.4552 6.718C60.4552 5.794 60.2692 4.984 59.8972 4.288C59.5372 3.592 59.0332 3.058 58.3852 2.686C57.7372 2.314 56.9992 2.128 56.1712 2.128C55.3432 2.128 54.6052 2.314 53.9572 2.686C53.3092 3.058 52.7992 3.592 52.4272 4.288C52.0672 4.984 51.8872 5.794 51.8872 6.718C51.8872 7.642 52.0672 8.458 52.4272 9.166C52.7992 9.862 53.3092 10.402 53.9572 10.786C54.6052 11.158 55.3432 11.344 56.1712 11.344ZM74.8585 13H72.8065L66.6325 3.658V13H64.5805V0.471999H66.6325L72.8065 9.796V0.471999H74.8585V13Z" fill="white"/>
</svg>
