<svg width="49" height="14" viewBox="0 0 49 14" fill="none" xmlns="http://www.w3.org/2000/svg">
<path d="M7.712 0.489999V2.164H2.402V5.854H6.542V7.528H2.402V13H0.35V0.489999H7.712ZM15.3197 13.126C14.1557 13.126 13.0817 12.856 12.0977 12.316C11.1257 11.764 10.3517 11.002 9.77567 10.03C9.21167 9.046 8.92967 7.942 8.92967 6.718C8.92967 5.494 9.21167 4.396 9.77567 3.424C10.3517 2.452 11.1257 1.696 12.0977 1.156C13.0817 0.603999 14.1557 0.327999 15.3197 0.327999C16.4957 0.327999 17.5697 0.603999 18.5417 1.156C19.5257 1.696 20.2997 2.452 20.8637 3.424C21.4277 4.396 21.7097 5.494 21.7097 6.718C21.7097 7.942 21.4277 9.046 20.8637 10.03C20.2997 11.002 19.5257 11.764 18.5417 12.316C17.5697 12.856 16.4957 13.126 15.3197 13.126ZM15.3197 11.344C16.1477 11.344 16.8857 11.158 17.5337 10.786C18.1817 10.402 18.6857 9.862 19.0457 9.166C19.4177 8.458 19.6037 7.642 19.6037 6.718C19.6037 5.794 19.4177 4.984 19.0457 4.288C18.6857 3.592 18.1817 3.058 17.5337 2.686C16.8857 2.314 16.1477 2.128 15.3197 2.128C14.4917 2.128 13.7537 2.314 13.1057 2.686C12.4577 3.058 11.9477 3.592 11.5757 4.288C11.2157 4.984 11.0357 5.794 11.0357 6.718C11.0357 7.642 11.2157 8.458 11.5757 9.166C11.9477 9.862 12.4577 10.402 13.1057 10.786C13.7537 11.158 14.4917 11.344 15.3197 11.344ZM29.4349 13.126C28.2709 13.126 27.1969 12.856 26.2129 12.316C25.2409 11.764 24.4669 11.002 23.8909 10.03C23.3269 9.046 23.0449 7.942 23.0449 6.718C23.0449 5.494 23.3269 4.396 23.8909 3.424C24.4669 2.452 25.2409 1.696 26.2129 1.156C27.1969 0.603999 28.2709 0.327999 29.4349 0.327999C30.6109 0.327999 31.6849 0.603999 32.6569 1.156C33.6409 1.696 34.4149 2.452 34.9789 3.424C35.5429 4.396 35.8249 5.494 35.8249 6.718C35.8249 7.942 35.5429 9.046 34.9789 10.03C34.4149 11.002 33.6409 11.764 32.6569 12.316C31.6849 12.856 30.6109 13.126 29.4349 13.126ZM29.4349 11.344C30.2629 11.344 31.0009 11.158 31.6489 10.786C32.2969 10.402 32.8009 9.862 33.1609 9.166C33.5329 8.458 33.7189 7.642 33.7189 6.718C33.7189 5.794 33.5329 4.984 33.1609 4.288C32.8009 3.592 32.2969 3.058 31.6489 2.686C31.0009 2.314 30.2629 2.128 29.4349 2.128C28.6069 2.128 27.8689 2.314 27.2209 2.686C26.5729 3.058 26.0629 3.592 25.6909 4.288C25.3309 4.984 25.1509 5.794 25.1509 6.718C25.1509 7.642 25.3309 8.458 25.6909 9.166C26.0629 9.862 26.5729 10.402 27.2209 10.786C27.8689 11.158 28.6069 11.344 29.4349 11.344ZM41.9301 0.489999C43.2621 0.489999 44.4261 0.747999 45.4221 1.264C46.4301 1.768 47.2041 2.5 47.7441 3.46C48.2961 4.408 48.5721 5.518 48.5721 6.79C48.5721 8.062 48.2961 9.166 47.7441 10.102C47.2041 11.038 46.4301 11.758 45.4221 12.262C44.4261 12.754 43.2621 13 41.9301 13H37.8441V0.489999H41.9301ZM41.9301 11.326C43.3941 11.326 44.5161 10.93 45.2961 10.138C46.0761 9.346 46.4661 8.23 46.4661 6.79C46.4661 5.338 46.0761 4.204 45.2961 3.388C44.5161 2.572 43.3941 2.164 41.9301 2.164H39.8961V11.326H41.9301Z" fill="white"/>
</svg>
