<svg width="51" height="32" viewBox="0 0 51 32" fill="none" xmlns="http://www.w3.org/2000/svg">
<rect width="51" height="32" fill="#FFB400"/>
<path d="M35.7144 23.1558L31.6248 19.067C31.4403 18.8824 31.1901 18.7799 30.9275 18.7799H30.2589C31.391 17.3322 32.0637 15.5113 32.0637 13.5304C32.0637 8.81818 28.2449 5 23.5319 5C18.8188 5 15 8.81818 15 13.5304C15 18.2427 18.8188 22.0608 23.5319 22.0608C25.5131 22.0608 27.3343 21.3882 28.7823 20.2563V20.9248C28.7823 21.1873 28.8848 21.4375 29.0694 21.622L33.1589 25.7109C33.5445 26.0964 34.168 26.0964 34.5495 25.7109L35.7103 24.5502C36.0959 24.1647 36.0959 23.5414 35.7144 23.1558ZM23.5319 18.7799C20.6319 18.7799 18.2815 16.434 18.2815 13.5304C18.2815 10.6309 20.6278 8.28093 23.5319 8.28093C26.4319 8.28093 28.7823 10.6268 28.7823 13.5304C28.7823 16.4299 26.436 18.7799 23.5319 18.7799Z" fill="#233A6C"/>
</svg>
