<svg width="121" height="15" viewBox="0 0 121 15" fill="none" xmlns="http://www.w3.org/2000/svg">
<path d="M7.596 1.242V11H6.322V6.576H1.352V11H0.0780001V1.242H1.352V5.526H6.322V1.242H7.596ZM16.7714 6.87C16.7714 7.11267 16.7574 7.36933 16.7294 7.64H10.5974C10.644 8.396 10.9007 8.98867 11.3674 9.418C11.8434 9.838 12.4174 10.048 13.0894 10.048C13.64 10.048 14.0974 9.922 14.4614 9.67C14.8347 9.40867 15.096 9.06333 15.2454 8.634H16.6174C16.412 9.37133 16.0014 9.97333 15.3854 10.44C14.7694 10.8973 14.004 11.126 13.0894 11.126C12.3614 11.126 11.708 10.9627 11.1294 10.636C10.56 10.3093 10.112 9.84733 9.78536 9.25C9.45869 8.64333 9.29536 7.94333 9.29536 7.15C9.29536 6.35667 9.45403 5.66133 9.77136 5.064C10.0887 4.46667 10.532 4.00933 11.1014 3.692C11.68 3.36533 12.3427 3.202 13.0894 3.202C13.8174 3.202 14.4614 3.36067 15.0214 3.678C15.5814 3.99533 16.0107 4.434 16.3094 4.994C16.6174 5.54467 16.7714 6.17 16.7714 6.87ZM15.4554 6.604C15.4554 6.11867 15.348 5.70333 15.1334 5.358C14.9187 5.00333 14.6247 4.73733 14.2514 4.56C13.8874 4.37333 13.4814 4.28 13.0334 4.28C12.3894 4.28 11.8387 4.48533 11.3814 4.896C10.9334 5.30667 10.6767 5.876 10.6114 6.604H15.4554ZM19.727 0.64V11H18.453V0.64H19.727ZM23.1723 4.742C23.4243 4.30333 23.7976 3.93933 24.2923 3.65C24.7963 3.35133 25.3796 3.202 26.0423 3.202C26.7236 3.202 27.3396 3.36533 27.8903 3.692C28.4503 4.01867 28.889 4.48067 29.2063 5.078C29.5236 5.666 29.6823 6.352 29.6823 7.136C29.6823 7.91067 29.5236 8.60133 29.2063 9.208C28.889 9.81467 28.4503 10.286 27.8903 10.622C27.3396 10.958 26.7236 11.126 26.0423 11.126C25.389 11.126 24.8103 10.9813 24.3063 10.692C23.8116 10.3933 23.4336 10.0247 23.1723 9.586V14.64H21.8983V3.328H23.1723V4.742ZM28.3803 7.136C28.3803 6.55733 28.2636 6.05333 28.0303 5.624C27.797 5.19467 27.4796 4.868 27.0783 4.644C26.6863 4.42 26.2523 4.308 25.7763 4.308C25.3096 4.308 24.8756 4.42467 24.4743 4.658C24.0823 4.882 23.765 5.21333 23.5223 5.652C23.289 6.08133 23.1723 6.58067 23.1723 7.15C23.1723 7.72867 23.289 8.23733 23.5223 8.676C23.765 9.10533 24.0823 9.43667 24.4743 9.67C24.8756 9.894 25.3096 10.006 25.7763 10.006C26.2523 10.006 26.6863 9.894 27.0783 9.67C27.4796 9.43667 27.797 9.10533 28.0303 8.676C28.2636 8.23733 28.3803 7.724 28.3803 7.136ZM34.6157 7.136C34.6157 6.352 34.7743 5.666 35.0917 5.078C35.409 4.48067 35.843 4.01867 36.3937 3.692C36.9537 3.36533 37.5743 3.202 38.2557 3.202C38.9277 3.202 39.511 3.34667 40.0057 3.636C40.5003 3.92533 40.869 4.28933 41.1117 4.728V3.328H42.3997V11H41.1117V9.572C40.8597 10.02 40.4817 10.3933 39.9777 10.692C39.483 10.9813 38.9043 11.126 38.2417 11.126C37.5603 11.126 36.9443 10.958 36.3937 10.622C35.843 10.286 35.409 9.81467 35.0917 9.208C34.7743 8.60133 34.6157 7.91067 34.6157 7.136ZM41.1117 7.15C41.1117 6.57133 40.995 6.06733 40.7617 5.638C40.5283 5.20867 40.211 4.882 39.8097 4.658C39.4177 4.42467 38.9837 4.308 38.5077 4.308C38.0317 4.308 37.5977 4.42 37.2057 4.644C36.8137 4.868 36.501 5.19467 36.2677 5.624C36.0343 6.05333 35.9177 6.55733 35.9177 7.136C35.9177 7.724 36.0343 8.23733 36.2677 8.676C36.501 9.10533 36.8137 9.43667 37.2057 9.67C37.5977 9.894 38.0317 10.006 38.5077 10.006C38.9837 10.006 39.4177 9.894 39.8097 9.67C40.211 9.43667 40.5283 9.10533 40.7617 8.676C40.995 8.23733 41.1117 7.72867 41.1117 7.15ZM48.2906 3.188C49.2239 3.188 49.9799 3.47267 50.5586 4.042C51.1373 4.602 51.4266 5.414 51.4266 6.478V11H50.1666V6.66C50.1666 5.89467 49.9753 5.31133 49.5926 4.91C49.2099 4.49933 48.6873 4.294 48.0246 4.294C47.3526 4.294 46.8159 4.504 46.4146 4.924C46.0226 5.344 45.8266 5.95533 45.8266 6.758V11H44.5526V3.328H45.8266V4.42C46.0786 4.028 46.4193 3.72467 46.8486 3.51C47.2873 3.29533 47.7679 3.188 48.2906 3.188ZM53.0317 7.136C53.0317 6.352 53.1904 5.666 53.5077 5.078C53.825 4.48067 54.259 4.01867 54.8097 3.692C55.3697 3.36533 55.995 3.202 56.6857 3.202C57.283 3.202 57.8384 3.342 58.3517 3.622C58.865 3.89267 59.257 4.252 59.5277 4.7V0.64H60.8157V11H59.5277V9.558C59.2757 10.0153 58.9024 10.3933 58.4077 10.692C57.913 10.9813 57.3344 11.126 56.6717 11.126C55.9904 11.126 55.3697 10.958 54.8097 10.622C54.259 10.286 53.825 9.81467 53.5077 9.208C53.1904 8.60133 53.0317 7.91067 53.0317 7.136ZM59.5277 7.15C59.5277 6.57133 59.411 6.06733 59.1777 5.638C58.9444 5.20867 58.627 4.882 58.2257 4.658C57.8337 4.42467 57.3997 4.308 56.9237 4.308C56.4477 4.308 56.0137 4.42 55.6217 4.644C55.2297 4.868 54.917 5.19467 54.6837 5.624C54.4504 6.05333 54.3337 6.55733 54.3337 7.136C54.3337 7.724 54.4504 8.23733 54.6837 8.676C54.917 9.10533 55.2297 9.43667 55.6217 9.67C56.0137 9.894 56.4477 10.006 56.9237 10.006C57.3997 10.006 57.8337 9.894 58.2257 9.67C58.627 9.43667 58.9444 9.10533 59.1777 8.676C59.411 8.23733 59.5277 7.72867 59.5277 7.15ZM69.795 11.098C69.151 11.098 68.5724 10.986 68.059 10.762C67.555 10.5287 67.1584 10.2113 66.869 9.81C66.5797 9.39933 66.4304 8.928 66.421 8.396H67.779C67.8257 8.85333 68.0124 9.24067 68.339 9.558C68.675 9.866 69.1604 10.02 69.795 10.02C70.4017 10.02 70.8777 9.87067 71.223 9.572C71.5777 9.264 71.755 8.872 71.755 8.396C71.755 8.02267 71.6524 7.71933 71.447 7.486C71.2417 7.25267 70.985 7.07533 70.677 6.954C70.369 6.83267 69.9537 6.702 69.431 6.562C68.787 6.394 68.269 6.226 67.877 6.058C67.4944 5.89 67.163 5.62867 66.883 5.274C66.6124 4.91 66.477 4.42467 66.477 3.818C66.477 3.286 66.6124 2.81467 66.883 2.404C67.1537 1.99333 67.5317 1.676 68.017 1.452C68.5117 1.228 69.0764 1.116 69.711 1.116C70.6257 1.116 71.3724 1.34467 71.951 1.802C72.539 2.25933 72.8704 2.866 72.945 3.622H71.545C71.4984 3.24867 71.3024 2.922 70.957 2.642C70.6117 2.35267 70.1544 2.208 69.585 2.208C69.053 2.208 68.619 2.348 68.283 2.628C67.947 2.89867 67.779 3.28133 67.779 3.776C67.779 4.13067 67.877 4.42 68.073 4.644C68.2784 4.868 68.5257 5.04067 68.815 5.162C69.1137 5.274 69.529 5.40467 70.061 5.554C70.705 5.73133 71.223 5.90867 71.615 6.086C72.007 6.254 72.343 6.52 72.623 6.884C72.903 7.23867 73.043 7.724 73.043 8.34C73.043 8.816 72.917 9.264 72.665 9.684C72.413 10.104 72.0397 10.4447 71.545 10.706C71.0504 10.9673 70.467 11.098 69.795 11.098ZM81.7218 3.328V11H80.4478V9.866C80.2052 10.258 79.8645 10.566 79.4258 10.79C78.9965 11.0047 78.5205 11.112 77.9978 11.112C77.4005 11.112 76.8638 10.9907 76.3878 10.748C75.9118 10.496 75.5338 10.1227 75.2538 9.628C74.9832 9.13333 74.8478 8.53133 74.8478 7.822V3.328H76.1078V7.654C76.1078 8.41 76.2992 8.99333 76.6818 9.404C77.0645 9.80533 77.5872 10.006 78.2498 10.006C78.9312 10.006 79.4678 9.796 79.8598 9.376C80.2518 8.956 80.4478 8.34467 80.4478 7.542V3.328H81.7218ZM85.1469 4.742C85.3989 4.30333 85.7723 3.93933 86.2669 3.65C86.7709 3.35133 87.3543 3.202 88.0169 3.202C88.6983 3.202 89.3143 3.36533 89.8649 3.692C90.4249 4.01867 90.8636 4.48067 91.1809 5.078C91.4983 5.666 91.6569 6.352 91.6569 7.136C91.6569 7.91067 91.4983 8.60133 91.1809 9.208C90.8636 9.81467 90.4249 10.286 89.8649 10.622C89.3143 10.958 88.6983 11.126 88.0169 11.126C87.3636 11.126 86.7849 10.9813 86.2809 10.692C85.7863 10.3933 85.4083 10.0247 85.1469 9.586V14.64H83.8729V3.328H85.1469V4.742ZM90.3549 7.136C90.3549 6.55733 90.2383 6.05333 90.0049 5.624C89.7716 5.19467 89.4543 4.868 89.0529 4.644C88.6609 4.42 88.2269 4.308 87.7509 4.308C87.2843 4.308 86.8503 4.42467 86.4489 4.658C86.0569 4.882 85.7396 5.21333 85.4969 5.652C85.2636 6.08133 85.1469 6.58067 85.1469 7.15C85.1469 7.72867 85.2636 8.23733 85.4969 8.676C85.7396 9.10533 86.0569 9.43667 86.4489 9.67C86.8503 9.894 87.2843 10.006 87.7509 10.006C88.2269 10.006 88.6609 9.894 89.0529 9.67C89.4543 9.43667 89.7716 9.10533 90.0049 8.676C90.2383 8.23733 90.3549 7.724 90.3549 7.136ZM94.6079 4.742C94.8599 4.30333 95.2332 3.93933 95.7279 3.65C96.2319 3.35133 96.8152 3.202 97.4779 3.202C98.1592 3.202 98.7752 3.36533 99.3259 3.692C99.8859 4.01867 100.325 4.48067 100.642 5.078C100.959 5.666 101.118 6.352 101.118 7.136C101.118 7.91067 100.959 8.60133 100.642 9.208C100.325 9.81467 99.8859 10.286 99.3259 10.622C98.7752 10.958 98.1592 11.126 97.4779 11.126C96.8245 11.126 96.2459 10.9813 95.7419 10.692C95.2472 10.3933 94.8692 10.0247 94.6079 9.586V14.64H93.3339V3.328H94.6079V4.742ZM99.8159 7.136C99.8159 6.55733 99.6992 6.05333 99.4659 5.624C99.2325 5.19467 98.9152 4.868 98.5139 4.644C98.1219 4.42 97.6879 4.308 97.2119 4.308C96.7452 4.308 96.3112 4.42467 95.9099 4.658C95.5179 4.882 95.2005 5.21333 94.9579 5.652C94.7245 6.08133 94.6079 6.58067 94.6079 7.15C94.6079 7.72867 94.7245 8.23733 94.9579 8.676C95.2005 9.10533 95.5179 9.43667 95.9099 9.67C96.3112 9.894 96.7452 10.006 97.2119 10.006C97.6879 10.006 98.1219 9.894 98.5139 9.67C98.9152 9.43667 99.2325 9.10533 99.4659 8.676C99.6992 8.23733 99.8159 7.724 99.8159 7.136ZM106.141 11.126C105.422 11.126 104.769 10.9627 104.181 10.636C103.602 10.3093 103.145 9.84733 102.809 9.25C102.482 8.64333 102.319 7.94333 102.319 7.15C102.319 6.366 102.487 5.67533 102.823 5.078C103.168 4.47133 103.635 4.00933 104.223 3.692C104.811 3.36533 105.469 3.202 106.197 3.202C106.925 3.202 107.583 3.36533 108.171 3.692C108.759 4.00933 109.221 4.46667 109.557 5.064C109.902 5.66133 110.075 6.35667 110.075 7.15C110.075 7.94333 109.897 8.64333 109.543 9.25C109.197 9.84733 108.726 10.3093 108.129 10.636C107.531 10.9627 106.869 11.126 106.141 11.126ZM106.141 10.006C106.598 10.006 107.027 9.89867 107.429 9.684C107.83 9.46933 108.152 9.14733 108.395 8.718C108.647 8.28867 108.773 7.766 108.773 7.15C108.773 6.534 108.651 6.01133 108.409 5.582C108.166 5.15267 107.849 4.83533 107.457 4.63C107.065 4.41533 106.64 4.308 106.183 4.308C105.716 4.308 105.287 4.41533 104.895 4.63C104.512 4.83533 104.204 5.15267 103.971 5.582C103.737 6.01133 103.621 6.534 103.621 7.15C103.621 7.77533 103.733 8.30267 103.957 8.732C104.19 9.16133 104.498 9.48333 104.881 9.698C105.263 9.90333 105.683 10.006 106.141 10.006ZM113.024 4.574C113.248 4.13533 113.565 3.79467 113.976 3.552C114.396 3.30933 114.905 3.188 115.502 3.188V4.504H115.166C113.738 4.504 113.024 5.27867 113.024 6.828V11H111.75V3.328H113.024V4.574ZM118.527 4.378V8.9C118.527 9.27333 118.606 9.53933 118.765 9.698C118.923 9.84733 119.199 9.922 119.591 9.922H120.529V11H119.381C118.671 11 118.139 10.8367 117.785 10.51C117.43 10.1833 117.253 9.64667 117.253 8.9V4.378H116.259V3.328H117.253V1.396H118.527V3.328H120.529V4.378H118.527Z" fill="white"/>
</svg>
