<svg width="112" height="14" viewBox="0 0 112 14" fill="none" xmlns="http://www.w3.org/2000/svg">
<path d="M6.982 0.568638V9.62964H5.799V5.52164H1.184V9.62964H0.00100009V0.568638H1.184V4.54664H5.799V0.568638H6.982ZM15.502 5.79464C15.502 6.01997 15.489 6.25831 15.463 6.50964H9.76898C9.81231 7.21164 10.0506 7.76197 10.484 8.16064C10.926 8.55064 11.459 8.74564 12.083 8.74564C12.5943 8.74564 13.019 8.62864 13.357 8.39464C13.7036 8.15197 13.9463 7.83131 14.085 7.43264H15.359C15.1683 8.11731 14.787 8.67631 14.215 9.10964C13.643 9.53431 12.9323 9.74664 12.083 9.74664C11.407 9.74664 10.8003 9.59497 10.263 9.29164C9.73431 8.98831 9.31831 8.55931 9.01498 8.00464C8.71164 7.44131 8.55998 6.79131 8.55998 6.05464C8.55998 5.31797 8.70731 4.67231 9.00198 4.11764C9.29664 3.56297 9.70831 3.1383 10.237 2.84364C10.7743 2.5403 11.3896 2.38864 12.083 2.38864C12.759 2.38864 13.357 2.53597 13.877 2.83064C14.397 3.12531 14.7956 3.53264 15.073 4.05264C15.359 4.56397 15.502 5.14464 15.502 5.79464ZM14.28 5.54764C14.28 5.09697 14.1803 4.7113 13.981 4.39064C13.7816 4.06131 13.5086 3.81431 13.162 3.64964C12.824 3.47631 12.447 3.38964 12.031 3.38964C11.433 3.38964 10.9216 3.58031 10.497 3.96164C10.081 4.34297 9.84264 4.87164 9.78198 5.54764H14.28ZM18.2465 0.00963855V9.62964H17.0635V0.00963855H18.2465ZM21.4457 3.81864C21.6797 3.41131 22.0264 3.07331 22.4857 2.80464C22.9537 2.5273 23.4954 2.38864 24.1107 2.38864C24.7434 2.38864 25.3154 2.5403 25.8267 2.84364C26.3467 3.14697 26.7541 3.57597 27.0487 4.13064C27.3434 4.67664 27.4907 5.31364 27.4907 6.04164C27.4907 6.76097 27.3434 7.40231 27.0487 7.96564C26.7541 8.52897 26.3467 8.96664 25.8267 9.27864C25.3154 9.59064 24.7434 9.74664 24.1107 9.74664C23.5041 9.74664 22.9667 9.61231 22.4987 9.34364C22.0394 9.06631 21.6884 8.72397 21.4457 8.31664V13.0096H20.2627V2.50564H21.4457V3.81864ZM26.2817 6.04164C26.2817 5.5043 26.1734 5.03631 25.9567 4.63764C25.7401 4.23897 25.4454 3.93564 25.0727 3.72764C24.7087 3.51964 24.3057 3.41564 23.8637 3.41564C23.4304 3.41564 23.0274 3.52397 22.6547 3.74064C22.2907 3.94864 21.9961 4.25631 21.7707 4.66364C21.5541 5.0623 21.4457 5.52597 21.4457 6.05464C21.4457 6.59197 21.5541 7.06431 21.7707 7.47164C21.9961 7.87031 22.2907 8.17797 22.6547 8.39464C23.0274 8.60264 23.4304 8.70664 23.8637 8.70664C24.3057 8.70664 24.7087 8.60264 25.0727 8.39464C25.4454 8.17797 25.7401 7.87031 25.9567 7.47164C26.1734 7.06431 26.2817 6.58764 26.2817 6.04164ZM32.0717 6.04164C32.0717 5.31364 32.219 4.67664 32.5137 4.13064C32.8084 3.57597 33.2114 3.14697 33.7227 2.84364C34.2427 2.5403 34.819 2.38864 35.4517 2.38864C36.0757 2.38864 36.6174 2.52297 37.0767 2.79164C37.536 3.0603 37.8784 3.3983 38.1037 3.80564V2.50564H39.2997V9.62964H38.1037V8.30364C37.8697 8.71964 37.5187 9.06631 37.0507 9.34364C36.5914 9.61231 36.054 9.74664 35.4387 9.74664C34.806 9.74664 34.234 9.59064 33.7227 9.27864C33.2114 8.96664 32.8084 8.52897 32.5137 7.96564C32.219 7.40231 32.0717 6.76097 32.0717 6.04164ZM38.1037 6.05464C38.1037 5.51731 37.9954 5.04931 37.7787 4.65064C37.562 4.25197 37.2674 3.94864 36.8947 3.74064C36.5307 3.52397 36.1277 3.41564 35.6857 3.41564C35.2437 3.41564 34.8407 3.51964 34.4767 3.72764C34.1127 3.93564 33.8224 4.23897 33.6057 4.63764C33.389 5.03631 33.2807 5.5043 33.2807 6.04164C33.2807 6.58764 33.389 7.06431 33.6057 7.47164C33.8224 7.87031 34.1127 8.17797 34.4767 8.39464C34.8407 8.60264 35.2437 8.70664 35.6857 8.70664C36.1277 8.70664 36.5307 8.60264 36.8947 8.39464C37.2674 8.17797 37.562 7.87031 37.7787 7.47164C37.9954 7.06431 38.1037 6.59197 38.1037 6.05464ZM44.7699 2.37564C45.6365 2.37564 46.3385 2.63997 46.8759 3.16864C47.4132 3.68864 47.6819 4.44264 47.6819 5.43064V9.62964H46.5119V5.59964C46.5119 4.88897 46.3342 4.34731 45.9789 3.97464C45.6235 3.5933 45.1382 3.40264 44.5229 3.40264C43.8989 3.40264 43.4005 3.59764 43.0279 3.98764C42.6639 4.37764 42.4819 4.94531 42.4819 5.69064V9.62964H41.2989V2.50564H42.4819V3.51964C42.7159 3.15564 43.0322 2.87397 43.4309 2.67464C43.8382 2.4753 44.2845 2.37564 44.7699 2.37564ZM49.1723 6.04164C49.1723 5.31364 49.3196 4.67664 49.6143 4.13064C49.9089 3.57597 50.3119 3.14697 50.8233 2.84364C51.3433 2.5403 51.9239 2.38864 52.5653 2.38864C53.1199 2.38864 53.6356 2.51864 54.1123 2.77864C54.5889 3.02997 54.9529 3.36364 55.2043 3.77964V0.00963855H56.4003V9.62964H55.2043V8.29064C54.9703 8.71531 54.6236 9.06631 54.1643 9.34364C53.7049 9.61231 53.1676 9.74664 52.5523 9.74664C51.9196 9.74664 51.3433 9.59064 50.8233 9.27864C50.3119 8.96664 49.9089 8.52897 49.6143 7.96564C49.3196 7.40231 49.1723 6.76097 49.1723 6.04164ZM55.2043 6.05464C55.2043 5.51731 55.0959 5.04931 54.8793 4.65064C54.6626 4.25197 54.3679 3.94864 53.9953 3.74064C53.6313 3.52397 53.2283 3.41564 52.7863 3.41564C52.3443 3.41564 51.9413 3.51964 51.5773 3.72764C51.2133 3.93564 50.9229 4.23897 50.7063 4.63764C50.4896 5.03631 50.3813 5.5043 50.3813 6.04164C50.3813 6.58764 50.4896 7.06431 50.7063 7.47164C50.9229 7.87031 51.2133 8.17797 51.5773 8.39464C51.9413 8.60264 52.3443 8.70664 52.7863 8.70664C53.2283 8.70664 53.6313 8.60264 53.9953 8.39464C54.3679 8.17797 54.6626 7.87031 54.8793 7.47164C55.0959 7.06431 55.2043 6.59197 55.2043 6.05464ZM64.7383 9.72064C64.1403 9.72064 63.6029 9.61664 63.1263 9.40864C62.6583 9.19197 62.2899 8.89731 62.0213 8.52464C61.7526 8.14331 61.6139 7.70564 61.6053 7.21164H62.8663C62.9096 7.63631 63.0829 7.99597 63.3863 8.29064C63.6983 8.57664 64.1489 8.71964 64.7383 8.71964C65.3016 8.71964 65.7436 8.58097 66.0643 8.30364C66.3936 8.01764 66.5583 7.65364 66.5583 7.21164C66.5583 6.86497 66.4629 6.58331 66.2723 6.36664C66.0816 6.14997 65.8433 5.98531 65.5573 5.87264C65.2713 5.75997 64.8856 5.63864 64.4003 5.50864C63.8023 5.35264 63.3213 5.19664 62.9573 5.04064C62.6019 4.88464 62.2943 4.64197 62.0343 4.31264C61.7829 3.97464 61.6573 3.52397 61.6573 2.96064C61.6573 2.46664 61.7829 2.02897 62.0343 1.64764C62.2856 1.2663 62.6366 0.971638 63.0873 0.763638C63.5466 0.555638 64.0709 0.451638 64.6603 0.451638C65.5096 0.451638 66.2029 0.663972 66.7403 1.08864C67.2863 1.5133 67.5939 2.07664 67.6633 2.77864H66.3633C66.3199 2.43197 66.1379 2.12864 65.8173 1.86864C65.4966 1.59997 65.0719 1.46564 64.5433 1.46564C64.0493 1.46564 63.6463 1.59564 63.3343 1.85564C63.0223 2.10697 62.8663 2.46231 62.8663 2.92164C62.8663 3.25097 62.9573 3.51964 63.1393 3.72764C63.3299 3.93564 63.5596 4.09597 63.8283 4.20864C64.1056 4.31264 64.4913 4.43397 64.9853 4.57264C65.5833 4.73731 66.0643 4.90197 66.4283 5.06664C66.7923 5.22264 67.1043 5.46964 67.3643 5.80764C67.6243 6.13697 67.7543 6.58764 67.7543 7.15964C67.7543 7.60164 67.6373 8.01764 67.4033 8.40764C67.1693 8.79764 66.8226 9.11397 66.3633 9.35664C65.9039 9.59931 65.3623 9.72064 64.7383 9.72064ZM75.8131 2.50564V9.62964H74.6301V8.57664C74.4048 8.94064 74.0885 9.22664 73.6811 9.43464C73.2825 9.63397 72.8405 9.73364 72.3551 9.73364C71.8005 9.73364 71.3021 9.62097 70.8601 9.39564C70.4181 9.16164 70.0671 8.81497 69.8071 8.35564C69.5558 7.89631 69.4301 7.33731 69.4301 6.67864V2.50564H70.6001V6.52264C70.6001 7.22464 70.7778 7.76631 71.1331 8.14764C71.4885 8.52031 71.9738 8.70664 72.5891 8.70664C73.2218 8.70664 73.7201 8.51164 74.0841 8.12164C74.4481 7.73164 74.6301 7.16397 74.6301 6.41864V2.50564H75.8131ZM78.9936 3.81864C79.2276 3.41131 79.5742 3.07331 80.0336 2.80464C80.5016 2.5273 81.0432 2.38864 81.6586 2.38864C82.2912 2.38864 82.8632 2.5403 83.3746 2.84364C83.8946 3.14697 84.3019 3.57597 84.5966 4.13064C84.8912 4.67664 85.0386 5.31364 85.0386 6.04164C85.0386 6.76097 84.8912 7.40231 84.5966 7.96564C84.3019 8.52897 83.8946 8.96664 83.3746 9.27864C82.8632 9.59064 82.2912 9.74664 81.6586 9.74664C81.0519 9.74664 80.5146 9.61231 80.0466 9.34364C79.5872 9.06631 79.2362 8.72397 78.9936 8.31664V13.0096H77.8106V2.50564H78.9936V3.81864ZM83.8296 6.04164C83.8296 5.5043 83.7212 5.03631 83.5046 4.63764C83.2879 4.23897 82.9932 3.93564 82.6206 3.72764C82.2566 3.51964 81.8536 3.41564 81.4116 3.41564C80.9782 3.41564 80.5752 3.52397 80.2026 3.74064C79.8386 3.94864 79.5439 4.25631 79.3186 4.66364C79.1019 5.0623 78.9936 5.52597 78.9936 6.05464C78.9936 6.59197 79.1019 7.06431 79.3186 7.47164C79.5439 7.87031 79.8386 8.17797 80.2026 8.39464C80.5752 8.60264 80.9782 8.70664 81.4116 8.70664C81.8536 8.70664 82.2566 8.60264 82.6206 8.39464C82.9932 8.17797 83.2879 7.87031 83.5046 7.47164C83.7212 7.06431 83.8296 6.58764 83.8296 6.04164ZM87.7787 3.81864C88.0127 3.41131 88.3594 3.07331 88.8187 2.80464C89.2867 2.5273 89.8284 2.38864 90.4437 2.38864C91.0764 2.38864 91.6484 2.5403 92.1597 2.84364C92.6797 3.14697 93.0871 3.57597 93.3817 4.13064C93.6764 4.67664 93.8237 5.31364 93.8237 6.04164C93.8237 6.76097 93.6764 7.40231 93.3817 7.96564C93.0871 8.52897 92.6797 8.96664 92.1597 9.27864C91.6484 9.59064 91.0764 9.74664 90.4437 9.74664C89.8371 9.74664 89.2997 9.61231 88.8317 9.34364C88.3724 9.06631 88.0214 8.72397 87.7787 8.31664V13.0096H86.5957V2.50564H87.7787V3.81864ZM92.6147 6.04164C92.6147 5.5043 92.5064 5.03631 92.2897 4.63764C92.0731 4.23897 91.7784 3.93564 91.4057 3.72764C91.0417 3.51964 90.6387 3.41564 90.1967 3.41564C89.7634 3.41564 89.3604 3.52397 88.9877 3.74064C88.6237 3.94864 88.3291 4.25631 88.1037 4.66364C87.8871 5.0623 87.7787 5.52597 87.7787 6.05464C87.7787 6.59197 87.8871 7.06431 88.1037 7.47164C88.3291 7.87031 88.6237 8.17797 88.9877 8.39464C89.3604 8.60264 89.7634 8.70664 90.1967 8.70664C90.6387 8.70664 91.0417 8.60264 91.4057 8.39464C91.7784 8.17797 92.0731 7.87031 92.2897 7.47164C92.5064 7.06431 92.6147 6.58764 92.6147 6.04164ZM98.4879 9.74664C97.8205 9.74664 97.2139 9.59497 96.6679 9.29164C96.1305 8.98831 95.7059 8.55931 95.3939 8.00464C95.0905 7.44131 94.9389 6.79131 94.9389 6.05464C94.9389 5.32664 95.0949 4.68531 95.4069 4.13064C95.7275 3.5673 96.1609 3.1383 96.7069 2.84364C97.2529 2.5403 97.8639 2.38864 98.5399 2.38864C99.2159 2.38864 99.8269 2.5403 100.373 2.84364C100.919 3.1383 101.348 3.56297 101.66 4.11764C101.981 4.67231 102.141 5.31797 102.141 6.05464C102.141 6.79131 101.976 7.44131 101.647 8.00464C101.326 8.55931 100.889 8.98831 100.334 9.29164C99.7792 9.59497 99.1639 9.74664 98.4879 9.74664ZM98.4879 8.70664C98.9125 8.70664 99.3112 8.60697 99.6839 8.40764C100.057 8.20831 100.356 7.90931 100.581 7.51064C100.815 7.11197 100.932 6.62664 100.932 6.05464C100.932 5.48264 100.819 4.99731 100.594 4.59864C100.369 4.19997 100.074 3.90531 99.7099 3.71464C99.3459 3.51531 98.9515 3.41564 98.5269 3.41564C98.0935 3.41564 97.6949 3.51531 97.3309 3.71464C96.9755 3.90531 96.6895 4.19997 96.4729 4.59864C96.2562 4.99731 96.1479 5.48264 96.1479 6.05464C96.1479 6.63531 96.2519 7.12497 96.4599 7.52364C96.6765 7.92231 96.9625 8.22131 97.3179 8.42064C97.6732 8.61131 98.0632 8.70664 98.4879 8.70664ZM104.879 3.66264C105.087 3.2553 105.382 2.93897 105.763 2.71364C106.153 2.48831 106.626 2.37564 107.18 2.37564V3.59764H106.868C105.542 3.59764 104.879 4.31697 104.879 5.75564V9.62964H103.696V2.50564H104.879V3.66264ZM109.989 3.48064V7.67964C109.989 8.02631 110.063 8.27331 110.21 8.42064C110.357 8.55931 110.613 8.62864 110.977 8.62864H111.848V9.62964H110.782C110.123 9.62964 109.629 9.47797 109.3 9.17464C108.971 8.87131 108.806 8.37297 108.806 7.67964V3.48064H107.883V2.50564H108.806V0.711638H109.989V2.50564H111.848V3.48064H109.989Z" fill="#595959"/>
</svg>
