<svg width="83" height="13" viewBox="0 0 83 13" fill="none" xmlns="http://www.w3.org/2000/svg">
<path d="M11.208 0.959999V12H10.088V3.184L6.152 12H5.336L1.4 3.216V12H0.28V0.959999H1.464L5.736 10.528L10.008 0.959999H11.208ZM21.6528 7.184C21.6528 7.568 21.6421 7.86133 21.6208 8.064H14.3728C14.4048 8.72533 14.5648 9.29067 14.8528 9.76C15.1408 10.2293 15.5194 10.5867 15.9888 10.832C16.4581 11.0667 16.9701 11.184 17.5248 11.184C18.2501 11.184 18.8581 11.008 19.3488 10.656C19.8501 10.304 20.1808 9.82933 20.3408 9.232H21.5248C21.3114 10.0853 20.8528 10.784 20.1488 11.328C19.4554 11.8613 18.5808 12.128 17.5248 12.128C16.7034 12.128 15.9674 11.9467 15.3168 11.584C14.6661 11.2107 14.1541 10.688 13.7808 10.016C13.4181 9.33333 13.2368 8.53867 13.2368 7.632C13.2368 6.72533 13.4181 5.93067 13.7808 5.248C14.1434 4.56533 14.6501 4.04267 15.3008 3.68C15.9514 3.31733 16.6928 3.136 17.5248 3.136C18.3568 3.136 19.0821 3.31733 19.7008 3.68C20.3301 4.04267 20.8101 4.53333 21.1408 5.152C21.4821 5.76 21.6528 6.43733 21.6528 7.184ZM20.5168 7.152C20.5274 6.50133 20.3941 5.94667 20.1168 5.488C19.8501 5.02933 19.4821 4.68267 19.0128 4.448C18.5434 4.21333 18.0314 4.096 17.4768 4.096C16.6448 4.096 15.9354 4.36267 15.3488 4.896C14.7621 5.42933 14.4368 6.18133 14.3728 7.152H20.5168ZM24.8219 4.816C25.0672 4.272 25.4405 3.85067 25.9419 3.552C26.4539 3.25333 27.0779 3.104 27.8139 3.104V4.272H27.5099C26.6992 4.272 26.0485 4.49067 25.5579 4.928C25.0672 5.36533 24.8219 6.096 24.8219 7.12V12H23.7019V3.264H24.8219V4.816ZM28.9868 7.632C28.9868 6.72533 29.1681 5.936 29.5308 5.264C29.8934 4.58133 30.3948 4.05867 31.0348 3.696C31.6748 3.32267 32.4054 3.136 33.2268 3.136C34.3041 3.136 35.1894 3.40267 35.8828 3.936C36.5868 4.46933 37.0401 5.19467 37.2428 6.112H36.0428C35.8934 5.48267 35.5681 4.992 35.0668 4.64C34.5761 4.27733 33.9628 4.096 33.2268 4.096C32.6401 4.096 32.1121 4.22933 31.6428 4.496C31.1734 4.76267 30.8001 5.16267 30.5228 5.696C30.2561 6.21867 30.1228 6.864 30.1228 7.632C30.1228 8.4 30.2561 9.05067 30.5228 9.584C30.8001 10.1173 31.1734 10.5173 31.6428 10.784C32.1121 11.0507 32.6401 11.184 33.2268 11.184C33.9628 11.184 34.5761 11.008 35.0668 10.656C35.5681 10.2933 35.8934 9.792 36.0428 9.152H37.2428C37.0401 10.048 36.5868 10.768 35.8828 11.312C35.1788 11.856 34.2934 12.128 33.2268 12.128C32.4054 12.128 31.6748 11.9467 31.0348 11.584C30.3948 11.2107 29.8934 10.688 29.5308 10.016C29.1681 9.33333 28.9868 8.53867 28.9868 7.632ZM43.4713 3.104C44.1326 3.104 44.7246 3.24267 45.2473 3.52C45.7806 3.79733 46.1966 4.224 46.4953 4.8C46.8046 5.36533 46.9593 6.05867 46.9593 6.88V12H45.8553V7.008C45.8553 6.05867 45.6153 5.33333 45.1353 4.832C44.6659 4.33067 44.0206 4.08 43.1993 4.08C42.3566 4.08 41.6846 4.34667 41.1833 4.88C40.6819 5.41333 40.4313 6.19733 40.4313 7.232V12H39.3113V0.16H40.4313V4.752C40.7086 4.22933 41.1139 3.824 41.6473 3.536C42.1913 3.248 42.7993 3.104 43.4713 3.104ZM48.9243 7.616C48.9243 6.72 49.1003 5.936 49.4523 5.264C49.8149 4.58133 50.3109 4.05867 50.9403 3.696C51.5803 3.32267 52.3003 3.136 53.1003 3.136C53.9323 3.136 54.6469 3.328 55.2443 3.712C55.8523 4.096 56.2896 4.58667 56.5563 5.184V3.264H57.6763V12H56.5563V10.064C56.2789 10.6613 55.8363 11.1573 55.2283 11.552C54.6309 11.936 53.9163 12.128 53.0843 12.128C52.2949 12.128 51.5803 11.9413 50.9403 11.568C50.3109 11.1947 49.8149 10.6667 49.4523 9.984C49.1003 9.30133 48.9243 8.512 48.9243 7.616ZM56.5563 7.632C56.5563 6.928 56.4123 6.30933 56.1243 5.776C55.8363 5.24267 55.4416 4.832 54.9403 4.544C54.4496 4.256 53.9056 4.112 53.3083 4.112C52.6896 4.112 52.1349 4.25067 51.6443 4.528C51.1536 4.80533 50.7643 5.21067 50.4763 5.744C50.1989 6.26667 50.0603 6.89067 50.0603 7.616C50.0603 8.33067 50.1989 8.96 50.4763 9.504C50.7643 10.0373 51.1536 10.448 51.6443 10.736C52.1349 11.0133 52.6896 11.152 53.3083 11.152C53.9056 11.152 54.4496 11.008 54.9403 10.72C55.4416 10.432 55.8363 10.0213 56.1243 9.488C56.4123 8.95467 56.5563 8.336 56.5563 7.632ZM64.3291 3.104C65.3745 3.104 66.2278 3.42933 66.8891 4.08C67.5505 4.72 67.8811 5.65333 67.8811 6.88V12H66.7771V7.008C66.7771 6.05867 66.5371 5.33333 66.0571 4.832C65.5878 4.33067 64.9425 4.08 64.1211 4.08C63.2785 4.08 62.6065 4.34667 62.1051 4.88C61.6038 5.41333 61.3531 6.19733 61.3531 7.232V12H60.2331V3.264H61.3531V4.752C61.6305 4.21867 62.0305 3.81333 62.5531 3.536C63.0758 3.248 63.6678 3.104 64.3291 3.104ZM71.8141 4.208V9.632C71.8141 10.1653 71.9155 10.5333 72.1181 10.736C72.3208 10.9387 72.6781 11.04 73.1901 11.04H74.2141V12H73.0141C72.2248 12 71.6381 11.8187 71.2541 11.456C70.8701 11.0827 70.6781 10.4747 70.6781 9.632V4.208H69.4621V3.264H70.6781V1.072H71.8141V3.264H74.2141V4.208H71.8141ZM79.0693 12.128C78.0666 12.128 77.2453 11.8987 76.6053 11.44C75.9759 10.9707 75.6239 10.336 75.5493 9.536H76.7013C76.7546 10.0267 76.9839 10.4267 77.3893 10.736C77.8053 11.0347 78.3599 11.184 79.0533 11.184C79.6613 11.184 80.1359 11.04 80.4773 10.752C80.8293 10.464 81.0053 10.1067 81.0053 9.68C81.0053 9.38133 80.9093 9.136 80.7173 8.944C80.5253 8.752 80.2799 8.60267 79.9813 8.496C79.6933 8.37867 79.2986 8.256 78.7973 8.128C78.1466 7.95733 77.6186 7.78667 77.2133 7.616C76.8079 7.44533 76.4613 7.19467 76.1733 6.864C75.8959 6.52267 75.7573 6.06933 75.7573 5.504C75.7573 5.07733 75.8853 4.68267 76.1413 4.32C76.3973 3.95733 76.7599 3.66933 77.2293 3.456C77.6986 3.24267 78.2319 3.136 78.8293 3.136C79.7679 3.136 80.5253 3.376 81.1013 3.856C81.6773 4.32533 81.9866 4.976 82.0293 5.808H80.9093C80.8773 5.296 80.6746 4.88533 80.3013 4.576C79.9386 4.256 79.4373 4.096 78.7973 4.096C78.2319 4.096 77.7733 4.22933 77.4213 4.496C77.0693 4.76267 76.8932 5.09333 76.8932 5.488C76.8932 5.82933 76.9946 6.112 77.1973 6.336C77.4106 6.54933 77.6719 6.72 77.9813 6.848C78.2906 6.96533 78.7066 7.09867 79.2293 7.248C79.8586 7.41867 80.3599 7.584 80.7333 7.744C81.1066 7.904 81.4266 8.13867 81.6933 8.448C81.9599 8.75733 82.0986 9.168 82.1093 9.68C82.1093 10.1493 81.9813 10.5707 81.7253 10.944C81.4693 11.3067 81.1119 11.5947 80.6533 11.808C80.1946 12.0213 79.6666 12.128 79.0693 12.128Z" fill="#E5E5E5"/>
</svg>
