<svg width="95" height="18" viewBox="0 0 95 18" fill="none" xmlns="http://www.w3.org/2000/svg">
<path d="M11.208 1.96V13H10.088V4.184L6.152 13H5.336L1.4 4.216V13H0.28V1.96H1.464L5.736 11.528L10.008 1.96H11.208ZM17.5728 13.128C16.7514 13.128 16.0101 12.9467 15.3488 12.584C14.6981 12.2107 14.1808 11.688 13.7968 11.016C13.4234 10.3333 13.2368 9.53867 13.2368 8.632C13.2368 7.72533 13.4288 6.936 13.8128 6.264C14.1968 5.58133 14.7194 5.05867 15.3808 4.696C16.0421 4.32267 16.7834 4.136 17.6048 4.136C18.4261 4.136 19.1674 4.32267 19.8288 4.696C20.5008 5.05867 21.0234 5.58133 21.3968 6.264C21.7808 6.936 21.9728 7.72533 21.9728 8.632C21.9728 9.528 21.7808 10.3173 21.3968 11C21.0128 11.6827 20.4848 12.2107 19.8128 12.584C19.1408 12.9467 18.3941 13.128 17.5728 13.128ZM17.5728 12.152C18.1488 12.152 18.6821 12.024 19.1728 11.768C19.6634 11.5013 20.0581 11.1067 20.3568 10.584C20.6661 10.0507 20.8208 9.4 20.8208 8.632C20.8208 7.864 20.6714 7.21867 20.3728 6.696C20.0741 6.16267 19.6794 5.768 19.1888 5.512C18.6981 5.24533 18.1648 5.112 17.5888 5.112C17.0128 5.112 16.4794 5.24533 15.9888 5.512C15.4981 5.768 15.1034 6.16267 14.8048 6.696C14.5168 7.21867 14.3728 7.864 14.3728 8.632C14.3728 9.4 14.5168 10.0507 14.8048 10.584C15.1034 11.1067 15.4928 11.5013 15.9728 11.768C16.4634 12.024 16.9968 12.152 17.5728 12.152ZM25.1184 6.2C25.4064 5.592 25.849 5.096 26.4464 4.712C27.0544 4.328 27.769 4.136 28.5904 4.136C29.3904 4.136 30.105 4.32267 30.7344 4.696C31.3637 5.05867 31.8544 5.58133 32.2064 6.264C32.569 6.936 32.7504 7.72 32.7504 8.616C32.7504 9.512 32.569 10.3013 32.2064 10.984C31.8544 11.6667 31.3584 12.1947 30.7184 12.568C30.089 12.9413 29.3797 13.128 28.5904 13.128C27.7584 13.128 27.0384 12.9413 26.4304 12.568C25.833 12.184 25.3957 11.688 25.1184 11.08V13H24.0144V1.16H25.1184V6.2ZM31.6144 8.616C31.6144 7.89067 31.4704 7.26667 31.1824 6.744C30.905 6.21067 30.521 5.80533 30.0304 5.528C29.5397 5.25067 28.985 5.112 28.3664 5.112C27.769 5.112 27.2197 5.256 26.7184 5.544C26.2277 5.832 25.8384 6.24267 25.5504 6.776C25.2624 7.30933 25.1184 7.928 25.1184 8.632C25.1184 9.336 25.2624 9.95467 25.5504 10.488C25.8384 11.0213 26.2277 11.432 26.7184 11.72C27.2197 12.008 27.769 12.152 28.3664 12.152C28.985 12.152 29.5397 12.0133 30.0304 11.736C30.521 11.448 30.905 11.0373 31.1824 10.504C31.4704 9.96 31.6144 9.33067 31.6144 8.616ZM35.3713 2.616C35.1473 2.616 34.9553 2.536 34.7953 2.376C34.6353 2.216 34.5553 2.01867 34.5553 1.784C34.5553 1.54933 34.6353 1.35733 34.7953 1.208C34.9553 1.048 35.1473 0.967999 35.3713 0.967999C35.5953 0.967999 35.7873 1.048 35.9473 1.208C36.1073 1.35733 36.1873 1.54933 36.1873 1.784C36.1873 2.01867 36.1073 2.216 35.9473 2.376C35.7873 2.536 35.5953 2.616 35.3713 2.616ZM35.9313 4.264V13H34.8113V4.264H35.9313ZM39.5875 1.16V13H38.4675V1.16H39.5875ZM50.0278 8.184C50.0278 8.568 50.0171 8.86133 49.9958 9.064H42.7478C42.7798 9.72533 42.9398 10.2907 43.2278 10.76C43.5158 11.2293 43.8944 11.5867 44.3638 11.832C44.8331 12.0667 45.3451 12.184 45.8998 12.184C46.6251 12.184 47.2331 12.008 47.7238 11.656C48.2251 11.304 48.5558 10.8293 48.7158 10.232H49.8998C49.6864 11.0853 49.2278 11.784 48.5238 12.328C47.8304 12.8613 46.9558 13.128 45.8998 13.128C45.0784 13.128 44.3424 12.9467 43.6918 12.584C43.0411 12.2107 42.5291 11.688 42.1558 11.016C41.7931 10.3333 41.6118 9.53867 41.6118 8.632C41.6118 7.72533 41.7931 6.93067 42.1558 6.248C42.5184 5.56533 43.0251 5.04267 43.6758 4.68C44.3264 4.31733 45.0678 4.136 45.8998 4.136C46.7318 4.136 47.4571 4.31733 48.0758 4.68C48.7051 5.04267 49.1851 5.53333 49.5158 6.152C49.8571 6.76 50.0278 7.43733 50.0278 8.184ZM48.8918 8.152C48.9024 7.50133 48.7691 6.94667 48.4918 6.488C48.2251 6.02933 47.8571 5.68267 47.3878 5.448C46.9184 5.21333 46.4064 5.096 45.8518 5.096C45.0198 5.096 44.3104 5.36267 43.7238 5.896C43.1371 6.42933 42.8118 7.18133 42.7478 8.152H48.8918ZM62.9475 10.344H57.8595L56.8835 13H55.6995L59.7795 1.96H61.0435L65.1075 13H63.9235L62.9475 10.344ZM62.6115 9.416L60.4035 3.368L58.1955 9.416H62.6115ZM68.009 6.184C68.2863 5.59733 68.7237 5.112 69.321 4.728C69.929 4.33333 70.649 4.136 71.481 4.136C72.2703 4.136 72.9797 4.32267 73.609 4.696C74.249 5.05867 74.745 5.58133 75.097 6.264C75.4597 6.936 75.641 7.72 75.641 8.616C75.641 9.512 75.4597 10.3013 75.097 10.984C74.745 11.6667 74.249 12.1947 73.609 12.568C72.9797 12.9413 72.2703 13.128 71.481 13.128C70.6597 13.128 69.945 12.936 69.337 12.552C68.729 12.1573 68.2863 11.6667 68.009 11.08V17.128H66.905V4.264H68.009V6.184ZM74.505 8.616C74.505 7.89067 74.361 7.26667 74.073 6.744C73.7957 6.21067 73.4117 5.80533 72.921 5.528C72.4303 5.25067 71.8757 5.112 71.257 5.112C70.6597 5.112 70.1103 5.256 69.609 5.544C69.1183 5.832 68.729 6.24267 68.441 6.776C68.153 7.30933 68.009 7.928 68.009 8.632C68.009 9.336 68.153 9.95467 68.441 10.488C68.729 11.0213 69.1183 11.432 69.609 11.72C70.1103 12.008 70.6597 12.152 71.257 12.152C71.8757 12.152 72.4303 12.0133 72.921 11.736C73.4117 11.448 73.7957 11.0373 74.073 10.504C74.361 9.96 74.505 9.33067 74.505 8.616ZM78.8059 6.184C79.0832 5.59733 79.5205 5.112 80.1179 4.728C80.7259 4.33333 81.4459 4.136 82.2779 4.136C83.0672 4.136 83.7765 4.32267 84.4059 4.696C85.0459 5.05867 85.5419 5.58133 85.8939 6.264C86.2565 6.936 86.4379 7.72 86.4379 8.616C86.4379 9.512 86.2565 10.3013 85.8939 10.984C85.5419 11.6667 85.0459 12.1947 84.4059 12.568C83.7765 12.9413 83.0672 13.128 82.2779 13.128C81.4565 13.128 80.7419 12.936 80.1339 12.552C79.5259 12.1573 79.0832 11.6667 78.8059 11.08V17.128H77.7019V4.264H78.8059V6.184ZM85.3019 8.616C85.3019 7.89067 85.1579 7.26667 84.8699 6.744C84.5925 6.21067 84.2085 5.80533 83.7179 5.528C83.2272 5.25067 82.6725 5.112 82.0539 5.112C81.4565 5.112 80.9072 5.256 80.4059 5.544C79.9152 5.832 79.5259 6.24267 79.2379 6.776C78.9499 7.30933 78.8059 7.928 78.8059 8.632C78.8059 9.336 78.9499 9.95467 79.2379 10.488C79.5259 11.0213 79.9152 11.432 80.4059 11.72C80.9072 12.008 81.4565 12.152 82.0539 12.152C82.6725 12.152 83.2272 12.0133 83.7179 11.736C84.2085 11.448 84.5925 11.0373 84.8699 10.504C85.1579 9.96 85.3019 9.33067 85.3019 8.616ZM91.5068 13.128C90.5041 13.128 89.6828 12.8987 89.0428 12.44C88.4134 11.9707 88.0614 11.336 87.9868 10.536H89.1388C89.1921 11.0267 89.4214 11.4267 89.8268 11.736C90.2428 12.0347 90.7974 12.184 91.4908 12.184C92.0988 12.184 92.5734 12.04 92.9148 11.752C93.2668 11.464 93.4428 11.1067 93.4428 10.68C93.4428 10.3813 93.3468 10.136 93.1548 9.944C92.9628 9.752 92.7174 9.60267 92.4188 9.496C92.1308 9.37867 91.7361 9.256 91.2348 9.128C90.5841 8.95733 90.0561 8.78667 89.6508 8.616C89.2454 8.44533 88.8988 8.19467 88.6108 7.864C88.3334 7.52267 88.1948 7.06933 88.1948 6.504C88.1948 6.07733 88.3228 5.68267 88.5788 5.32C88.8348 4.95733 89.1974 4.66933 89.6668 4.456C90.1361 4.24267 90.6694 4.136 91.2668 4.136C92.2054 4.136 92.9628 4.376 93.5388 4.856C94.1148 5.32533 94.4241 5.976 94.4668 6.808H93.3468C93.3148 6.296 93.1121 5.88533 92.7388 5.576C92.3761 5.256 91.8748 5.096 91.2348 5.096C90.6694 5.096 90.2108 5.22933 89.8588 5.496C89.5068 5.76267 89.3307 6.09333 89.3307 6.488C89.3307 6.82933 89.4321 7.112 89.6348 7.336C89.8481 7.54933 90.1094 7.72 90.4188 7.848C90.7281 7.96533 91.1441 8.09867 91.6668 8.248C92.2961 8.41867 92.7974 8.584 93.1708 8.744C93.5441 8.904 93.8641 9.13867 94.1308 9.448C94.3974 9.75733 94.5361 10.168 94.5468 10.68C94.5468 11.1493 94.4188 11.5707 94.1628 11.944C93.9068 12.3067 93.5494 12.5947 93.0908 12.808C92.6321 13.0213 92.1041 13.128 91.5068 13.128Z" fill="#E5E5E5"/>
</svg>
