<svg width="93" height="11" viewBox="0 0 93 11" fill="none" xmlns="http://www.w3.org/2000/svg">
<path d="M6.602 3.09806C6.602 3.91006 6.322 4.58673 5.762 5.12806C5.21133 5.66006 4.36667 5.92606 3.228 5.92606H1.352V10.0001H0.0780001V0.242061H3.228C4.32933 0.242061 5.16467 0.508061 5.734 1.04006C6.31267 1.57206 6.602 2.25806 6.602 3.09806ZM3.228 4.87606C3.93733 4.87606 4.46 4.72206 4.796 4.41406C5.132 4.10606 5.3 3.66739 5.3 3.09806C5.3 1.89406 4.60933 1.29206 3.228 1.29206H1.352V4.87606H3.228ZM15.0734 7.83006H10.8174L10.0334 10.0001H8.68942L12.2174 0.298061H13.6874L17.2014 10.0001H15.8574L15.0734 7.83006ZM14.7094 6.79406L12.9454 1.86606L11.1814 6.79406H14.7094ZM24.997 10.0001L22.673 6.01006H21.133V10.0001H19.859V0.242061H23.009C23.7463 0.242061 24.367 0.368061 24.871 0.620061C25.3843 0.872061 25.767 1.21273 26.019 1.64206C26.271 2.07139 26.397 2.56139 26.397 3.11206C26.397 3.78406 26.201 4.37673 25.809 4.89006C25.4263 5.40339 24.8477 5.74406 24.073 5.91206L26.523 10.0001H24.997ZM21.133 4.98806H23.009C23.6997 4.98806 24.2177 4.82006 24.563 4.48406C24.9083 4.13873 25.081 3.68139 25.081 3.11206C25.081 2.53339 24.9083 2.08539 24.563 1.76806C24.227 1.45073 23.709 1.29206 23.009 1.29206H21.133V4.98806ZM35.5026 0.242061V1.27806H32.8426V10.0001H31.5686V1.27806H28.8946V0.242061H35.5026ZM45.0228 0.242061L41.8448 6.31806V10.0001H40.5708V6.31806L37.3788 0.242061H38.7928L41.2008 5.18406L43.6088 0.242061H45.0228ZM64.603 0.242061L61.775 10.0001H60.347L58.079 2.14606L55.727 10.0001L54.313 10.0141L51.583 0.242061H52.941L55.069 8.51606L57.421 0.242061H58.849L61.089 8.48806L63.231 0.242061H64.603ZM68.3912 1.27806V4.54006H71.9472V5.59006H68.3912V8.95006H72.3672V10.0001H67.1172V0.228061H72.3672V1.27806H68.3912ZM81.183 7.83006H76.927L76.143 10.0001H74.799L78.327 0.298061H79.797L83.311 10.0001H81.967L81.183 7.83006ZM80.819 6.79406L79.055 1.86606L77.291 6.79406H80.819ZM91.1065 10.0001L88.7825 6.01006H87.2425V10.0001H85.9685V0.242061H89.1185C89.8559 0.242061 90.4765 0.368061 90.9805 0.620061C91.4939 0.872061 91.8765 1.21273 92.1285 1.64206C92.3805 2.07139 92.5065 2.56139 92.5065 3.11206C92.5065 3.78406 92.3105 4.37673 91.9185 4.89006C91.5359 5.40339 90.9572 5.74406 90.1825 5.91206L92.6325 10.0001H91.1065ZM87.2425 4.98806H89.1185C89.8092 4.98806 90.3272 4.82006 90.6725 4.48406C91.0179 4.13873 91.1905 3.68139 91.1905 3.11206C91.1905 2.53339 91.0179 2.08539 90.6725 1.76806C90.3365 1.45073 89.8185 1.29206 89.1185 1.29206H87.2425V4.98806Z" fill="#D00000"/>
</svg>
