<svg width="63" height="13" viewBox="0 0 63 13" fill="none" xmlns="http://www.w3.org/2000/svg">
<path d="M8.248 4.288C8.248 4.88533 8.104 5.44533 7.816 5.968C7.53867 6.49067 7.096 6.912 6.488 7.232C5.89067 7.552 5.13333 7.712 4.216 7.712H2.344V12H0.104V0.832H4.216C5.08 0.832 5.816 0.981333 6.424 1.28C7.032 1.57867 7.48533 1.98933 7.784 2.512C8.09333 3.03467 8.248 3.62667 8.248 4.288ZM4.12 5.904C4.73867 5.904 5.19733 5.76533 5.496 5.488C5.79467 5.2 5.944 4.8 5.944 4.288C5.944 3.2 5.336 2.656 4.12 2.656H2.344V5.904H4.12ZM12.0784 4.512C12.3664 4.04267 12.7397 3.67467 13.1984 3.408C13.6677 3.14133 14.201 3.008 14.7984 3.008V5.36H14.2064C13.5024 5.36 12.969 5.52533 12.6064 5.856C12.2544 6.18667 12.0784 6.76267 12.0784 7.584V12H9.83838V3.136H12.0784V4.512ZM20.2431 12.144C19.3898 12.144 18.6218 11.9573 17.9391 11.584C17.2565 11.2 16.7178 10.6613 16.3231 9.968C15.9391 9.27467 15.7471 8.47467 15.7471 7.568C15.7471 6.66133 15.9445 5.86133 16.3391 5.168C16.7445 4.47467 17.2938 3.94133 17.9871 3.568C18.6805 3.184 19.4538 2.992 20.3071 2.992C21.1605 2.992 21.9338 3.184 22.6271 3.568C23.3205 3.94133 23.8645 4.47467 24.2591 5.168C24.6645 5.86133 24.8671 6.66133 24.8671 7.568C24.8671 8.47467 24.6591 9.27467 24.2431 9.968C23.8378 10.6613 23.2831 11.2 22.5791 11.584C21.8858 11.9573 21.1071 12.144 20.2431 12.144ZM20.2431 10.192C20.6485 10.192 21.0271 10.096 21.3791 9.904C21.7418 9.70133 22.0298 9.40267 22.2431 9.008C22.4565 8.61333 22.5631 8.13333 22.5631 7.568C22.5631 6.72533 22.3391 6.08 21.8911 5.632C21.4538 5.17333 20.9151 4.944 20.2751 4.944C19.6351 4.944 19.0965 5.17333 18.6591 5.632C18.2325 6.08 18.0191 6.72533 18.0191 7.568C18.0191 8.41067 18.2271 9.06133 18.6431 9.52C19.0698 9.968 19.6031 10.192 20.2431 10.192ZM25.9342 7.536C25.9342 6.64 26.1102 5.84533 26.4622 5.152C26.8249 4.45867 27.3156 3.92533 27.9343 3.552C28.5529 3.17867 29.2409 2.992 29.9983 2.992C30.5743 2.992 31.1236 3.12 31.6463 3.376C32.1689 3.62133 32.5849 3.952 32.8943 4.368V0.16H35.1663V12H32.8943V10.688C32.6169 11.1253 32.2276 11.4773 31.7263 11.744C31.2249 12.0107 30.6436 12.144 29.9823 12.144C29.2356 12.144 28.5529 11.952 27.9343 11.568C27.3156 11.184 26.8249 10.6453 26.4622 9.952C26.1102 9.248 25.9342 8.44267 25.9342 7.536ZM32.9103 7.568C32.9103 7.024 32.8036 6.56 32.5903 6.176C32.3769 5.78133 32.0889 5.48267 31.7263 5.28C31.3636 5.06667 30.9743 4.96 30.5583 4.96C30.1423 4.96 29.7583 5.06133 29.4062 5.264C29.0543 5.46667 28.7663 5.76533 28.5423 6.16C28.3289 6.544 28.2223 7.00267 28.2223 7.536C28.2223 8.06933 28.3289 8.53867 28.5423 8.944C28.7663 9.33867 29.0543 9.64267 29.4062 9.856C29.7689 10.0693 30.1529 10.176 30.5583 10.176C30.9743 10.176 31.3636 10.0747 31.7263 9.872C32.0889 9.65867 32.3769 9.36 32.5903 8.976C32.8036 8.58133 32.9103 8.112 32.9103 7.568ZM45.722 3.136V12H43.466V10.88C43.178 11.264 42.7993 11.568 42.33 11.792C41.8713 12.0053 41.37 12.112 40.826 12.112C40.1327 12.112 39.5193 11.968 38.986 11.68C38.4527 11.3813 38.0313 10.9493 37.722 10.384C37.4233 9.808 37.274 9.12533 37.274 8.336V3.136H39.514V8.016C39.514 8.72 39.69 9.264 40.042 9.648C40.394 10.0213 40.874 10.208 41.482 10.208C42.1007 10.208 42.586 10.0213 42.938 9.648C43.29 9.264 43.466 8.72 43.466 8.016V3.136H45.722ZM47.3561 7.568C47.3561 6.65067 47.5428 5.85067 47.9161 5.168C48.2895 4.47467 48.8068 3.94133 49.4681 3.568C50.1295 3.184 50.8868 2.992 51.7401 2.992C52.8388 2.992 53.7455 3.26933 54.4601 3.824C55.1855 4.368 55.6708 5.136 55.9161 6.128H53.5001C53.3721 5.744 53.1535 5.44533 52.8441 5.232C52.5455 5.008 52.1721 4.896 51.7241 4.896C51.0841 4.896 50.5775 5.13067 50.2041 5.6C49.8308 6.05867 49.6441 6.71467 49.6441 7.568C49.6441 8.41067 49.8308 9.06667 50.2041 9.536C50.5775 9.99467 51.0841 10.224 51.7241 10.224C52.6308 10.224 53.2228 9.81867 53.5001 9.008H55.9161C55.6708 9.968 55.1855 10.7307 54.4601 11.296C53.7348 11.8613 52.8281 12.144 51.7401 12.144C50.8868 12.144 50.1295 11.9573 49.4681 11.584C48.8068 11.2 48.2895 10.6667 47.9161 9.984C47.5428 9.29067 47.3561 8.48533 47.3561 7.568ZM60.1651 4.976V9.264C60.1651 9.56267 60.2345 9.78133 60.3731 9.92C60.5225 10.048 60.7678 10.112 61.1091 10.112H62.1491V12H60.7411C58.8531 12 57.9091 11.0827 57.9091 9.248V4.976H56.8531V3.136H57.9091V0.943999H60.1651V3.136H62.1491V4.976H60.1651Z" fill="#E5E5E5"/>
</svg>
