<svg width="78" height="14" viewBox="0 0 78 14" fill="none" xmlns="http://www.w3.org/2000/svg">
<path d="M7.432 5.032C7.432 5.992 7.11733 6.76533 6.488 7.352C5.85867 7.93867 4.91467 8.232 3.656 8.232H1.4V13H0.28V1.816H3.656C4.904 1.816 5.84267 2.10933 6.472 2.696C7.112 3.28267 7.432 4.06133 7.432 5.032ZM3.656 7.272C5.40533 7.272 6.28 6.52533 6.28 5.032C6.28 4.28533 6.072 3.72 5.656 3.336C5.24 2.952 4.57333 2.76 3.656 2.76H1.4V7.272H3.656ZM16.8793 4.264V13H15.7593V11.464C15.5033 12.008 15.1086 12.424 14.5753 12.712C14.0419 13 13.4446 13.144 12.7833 13.144C11.7379 13.144 10.8846 12.824 10.2233 12.184C9.56192 11.5333 9.23125 10.5947 9.23125 9.368V4.264H10.3353V9.24C10.3353 10.1893 10.5699 10.9147 11.0393 11.416C11.5193 11.9173 12.1699 12.168 12.9913 12.168C13.8339 12.168 14.5059 11.9013 15.0073 11.368C15.5086 10.8347 15.7593 10.0507 15.7593 9.016V4.264H16.8793ZM20.5403 6.2C20.8283 5.592 21.2709 5.096 21.8683 4.712C22.4763 4.328 23.1909 4.136 24.0123 4.136C24.8123 4.136 25.5269 4.32267 26.1562 4.696C26.7856 5.05867 27.2763 5.58133 27.6283 6.264C27.9909 6.936 28.1723 7.72 28.1723 8.616C28.1723 9.512 27.9909 10.3013 27.6283 10.984C27.2763 11.6667 26.7803 12.1947 26.1403 12.568C25.5109 12.9413 24.8016 13.128 24.0123 13.128C23.1803 13.128 22.4603 12.9413 21.8523 12.568C21.2549 12.184 20.8176 11.688 20.5403 11.08V13H19.4363V1.16H20.5403V6.2ZM27.0363 8.616C27.0363 7.89067 26.8923 7.26667 26.6042 6.744C26.3269 6.21067 25.9429 5.80533 25.4523 5.528C24.9616 5.25067 24.4069 5.112 23.7883 5.112C23.1909 5.112 22.6416 5.256 22.1403 5.544C21.6496 5.832 21.2603 6.24267 20.9723 6.776C20.6843 7.30933 20.5403 7.928 20.5403 8.632C20.5403 9.336 20.6843 9.95467 20.9723 10.488C21.2603 11.0213 21.6496 11.432 22.1403 11.72C22.6416 12.008 23.1909 12.152 23.7883 12.152C24.4069 12.152 24.9616 12.0133 25.4523 11.736C25.9429 11.448 26.3269 11.0373 26.6042 10.504C26.8923 9.96 27.0363 9.33067 27.0363 8.616ZM31.3531 1.16V13H30.2331V1.16H31.3531ZM34.4494 2.616C34.2254 2.616 34.0334 2.536 33.8734 2.376C33.7134 2.216 33.6334 2.01867 33.6334 1.784C33.6334 1.54933 33.7134 1.35733 33.8734 1.208C34.0334 1.048 34.2254 0.967999 34.4494 0.967999C34.6734 0.967999 34.8654 1.048 35.0254 1.208C35.1854 1.35733 35.2654 1.54933 35.2654 1.784C35.2654 2.01867 35.1854 2.216 35.0254 2.376C34.8654 2.536 34.6734 2.616 34.4494 2.616ZM35.0094 4.264V13H33.8894V4.264H35.0094ZM40.5536 13.128C39.551 13.128 38.7296 12.8987 38.0896 12.44C37.4603 11.9707 37.1083 11.336 37.0336 10.536H38.1856C38.239 11.0267 38.4683 11.4267 38.8736 11.736C39.2896 12.0347 39.8443 12.184 40.5376 12.184C41.1456 12.184 41.6203 12.04 41.9616 11.752C42.3136 11.464 42.4896 11.1067 42.4896 10.68C42.4896 10.3813 42.3936 10.136 42.2016 9.944C42.0096 9.752 41.7643 9.60267 41.4656 9.496C41.1776 9.37867 40.783 9.256 40.2816 9.128C39.631 8.95733 39.103 8.78667 38.6976 8.616C38.2923 8.44533 37.9456 8.19467 37.6576 7.864C37.3803 7.52267 37.2416 7.06933 37.2416 6.504C37.2416 6.07733 37.3696 5.68267 37.6256 5.32C37.8816 4.95733 38.2443 4.66933 38.7136 4.456C39.183 4.24267 39.7163 4.136 40.3136 4.136C41.2523 4.136 42.0096 4.376 42.5856 4.856C43.1616 5.32533 43.471 5.976 43.5136 6.808H42.3936C42.3616 6.296 42.159 5.88533 41.7856 5.576C41.423 5.256 40.9216 5.096 40.2816 5.096C39.7163 5.096 39.2576 5.22933 38.9056 5.496C38.5536 5.76267 38.3776 6.09333 38.3776 6.488C38.3776 6.82933 38.479 7.112 38.6816 7.336C38.895 7.54933 39.1563 7.72 39.4656 7.848C39.775 7.96533 40.191 8.09867 40.7136 8.248C41.343 8.41867 41.8443 8.584 42.2176 8.744C42.591 8.904 42.911 9.13867 43.1776 9.448C43.4443 9.75733 43.583 10.168 43.5936 10.68C43.5936 11.1493 43.4656 11.5707 43.2096 11.944C42.9536 12.3067 42.5963 12.5947 42.1376 12.808C41.679 13.0213 41.151 13.128 40.5536 13.128ZM49.8619 4.104C50.5232 4.104 51.1152 4.24267 51.6379 4.52C52.1712 4.79733 52.5872 5.224 52.8859 5.8C53.1952 6.36533 53.3499 7.05867 53.3499 7.88V13H52.2459V8.008C52.2459 7.05867 52.0059 6.33333 51.5259 5.832C51.0565 5.33067 50.4112 5.08 49.5899 5.08C48.7472 5.08 48.0752 5.34667 47.5739 5.88C47.0725 6.41333 46.8219 7.19733 46.8219 8.232V13H45.7019V1.16H46.8219V5.752C47.0992 5.22933 47.5045 4.824 48.0379 4.536C48.5819 4.248 49.1899 4.104 49.8619 4.104ZM63.7309 8.184C63.7309 8.568 63.7202 8.86133 63.6989 9.064H56.4509C56.4829 9.72533 56.6429 10.2907 56.9309 10.76C57.2189 11.2293 57.5975 11.5867 58.0669 11.832C58.5362 12.0667 59.0482 12.184 59.6029 12.184C60.3282 12.184 60.9362 12.008 61.4269 11.656C61.9282 11.304 62.2589 10.8293 62.4189 10.232H63.6029C63.3895 11.0853 62.9309 11.784 62.2269 12.328C61.5335 12.8613 60.6589 13.128 59.6029 13.128C58.7815 13.128 58.0455 12.9467 57.3949 12.584C56.7442 12.2107 56.2322 11.688 55.8589 11.016C55.4962 10.3333 55.3149 9.53867 55.3149 8.632C55.3149 7.72533 55.4962 6.93067 55.8589 6.248C56.2215 5.56533 56.7282 5.04267 57.3789 4.68C58.0295 4.31733 58.7709 4.136 59.6029 4.136C60.4349 4.136 61.1602 4.31733 61.7789 4.68C62.4082 5.04267 62.8882 5.53333 63.2189 6.152C63.5602 6.76 63.7309 7.43733 63.7309 8.184ZM62.5949 8.152C62.6055 7.50133 62.4722 6.94667 62.1949 6.488C61.9282 6.02933 61.5602 5.68267 61.0909 5.448C60.6215 5.21333 60.1095 5.096 59.5549 5.096C58.7229 5.096 58.0135 5.36267 57.4269 5.896C56.8402 6.42933 56.5149 7.18133 56.4509 8.152H62.5949ZM66.9 5.816C67.1453 5.272 67.5187 4.85067 68.02 4.552C68.532 4.25333 69.156 4.104 69.892 4.104V5.272H69.588C68.7773 5.272 68.1267 5.49067 67.636 5.928C67.1453 6.36533 66.9 7.096 66.9 8.12V13H65.78V4.264H66.9V5.816ZM74.5849 13.128C73.5822 13.128 72.7609 12.8987 72.1209 12.44C71.4915 11.9707 71.1395 11.336 71.0649 10.536H72.2169C72.2702 11.0267 72.4995 11.4267 72.9049 11.736C73.3209 12.0347 73.8755 12.184 74.5689 12.184C75.1769 12.184 75.6515 12.04 75.9929 11.752C76.3449 11.464 76.5209 11.1067 76.5209 10.68C76.5209 10.3813 76.4249 10.136 76.2329 9.944C76.0409 9.752 75.7955 9.60267 75.4969 9.496C75.2089 9.37867 74.8142 9.256 74.3129 9.128C73.6622 8.95733 73.1342 8.78667 72.7289 8.616C72.3235 8.44533 71.9769 8.19467 71.6889 7.864C71.4115 7.52267 71.2729 7.06933 71.2729 6.504C71.2729 6.07733 71.4009 5.68267 71.6569 5.32C71.9129 4.95733 72.2755 4.66933 72.7449 4.456C73.2142 4.24267 73.7475 4.136 74.3449 4.136C75.2835 4.136 76.0409 4.376 76.6169 4.856C77.1929 5.32533 77.5022 5.976 77.5449 6.808H76.4249C76.3929 6.296 76.1902 5.88533 75.8169 5.576C75.4542 5.256 74.9529 5.096 74.3129 5.096C73.7475 5.096 73.2889 5.22933 72.9369 5.496C72.5849 5.76267 72.4089 6.09333 72.4089 6.488C72.4089 6.82933 72.5102 7.112 72.7129 7.336C72.9262 7.54933 73.1875 7.72 73.4969 7.848C73.8062 7.96533 74.2222 8.09867 74.7449 8.248C75.3742 8.41867 75.8755 8.584 76.2489 8.744C76.6222 8.904 76.9422 9.13867 77.2089 9.448C77.4755 9.75733 77.6142 10.168 77.6249 10.68C77.6249 11.1493 77.4969 11.5707 77.2409 11.944C76.9849 12.3067 76.6275 12.5947 76.1689 12.808C75.7102 13.0213 75.1822 13.128 74.5849 13.128Z" fill="#E5E5E5"/>
</svg>
