<svg width="93" height="11" viewBox="0 0 93 11" fill="none" xmlns="http://www.w3.org/2000/svg">
<path d="M4.772 10.6296L2.614 6.92464H1.184V10.6296H0.00100009V1.56864H2.926C3.61067 1.56864 4.187 1.68564 4.655 1.91964C5.13167 2.15364 5.487 2.46997 5.721 2.86864C5.955 3.26731 6.072 3.72231 6.072 4.23364C6.072 4.85764 5.89 5.40797 5.526 5.88464C5.17067 6.36131 4.63333 6.67764 3.914 6.83364L6.189 10.6296H4.772ZM1.184 5.97564H2.926C3.56733 5.97564 4.04833 5.81964 4.369 5.50764C4.68967 5.18697 4.85 4.76231 4.85 4.23364C4.85 3.69631 4.68967 3.28031 4.369 2.98564C4.057 2.69097 3.576 2.54364 2.926 2.54364H1.184V5.97564ZM14.4102 6.79464C14.4102 7.01997 14.3972 7.25831 14.3712 7.50964H8.67718C8.72051 8.21164 8.95885 8.76197 9.39218 9.16064C9.83418 9.55064 10.3672 9.74564 10.9912 9.74564C11.5025 9.74564 11.9272 9.62864 12.2652 9.39464C12.6118 9.15197 12.8545 8.83131 12.9932 8.43264H14.2672C14.0765 9.11731 13.6952 9.67631 13.1232 10.1096C12.5512 10.5343 11.8405 10.7466 10.9912 10.7466C10.3152 10.7466 9.70851 10.595 9.17118 10.2916C8.64251 9.98831 8.22651 9.55931 7.92318 9.00464C7.61985 8.44131 7.46818 7.79131 7.46818 7.05464C7.46818 6.31797 7.61551 5.67231 7.91018 5.11764C8.20485 4.56297 8.61651 4.1383 9.14518 3.84364C9.68251 3.5403 10.2978 3.38864 10.9912 3.38864C11.6672 3.38864 12.2652 3.53597 12.7852 3.83064C13.3052 4.12531 13.7038 4.53264 13.9812 5.05264C14.2672 5.56397 14.4102 6.14464 14.4102 6.79464ZM13.1882 6.54764C13.1882 6.09697 13.0885 5.7113 12.8892 5.39064C12.6898 5.06131 12.4168 4.81431 12.0702 4.64964C11.7322 4.47631 11.3552 4.38964 10.9392 4.38964C10.3412 4.38964 9.82985 4.58031 9.40518 4.96164C8.98918 5.34297 8.75085 5.87164 8.69018 6.54764H13.1882ZM18.8707 4.48064H17.3757V10.6296H16.1927V4.48064H15.2697V3.50564H16.1927V2.99864C16.1927 2.20131 16.3964 1.62064 16.8037 1.25664C17.2197 0.883971 17.8827 0.697638 18.7927 0.697638V1.68564C18.2727 1.68564 17.9044 1.78964 17.6877 1.99764C17.4797 2.19697 17.3757 2.53064 17.3757 2.99864V3.50564H18.8707V4.48064ZM26.75 6.79464C26.75 7.01997 26.737 7.25831 26.711 7.50964H21.017C21.0604 8.21164 21.2987 8.76197 21.732 9.16064C22.174 9.55064 22.707 9.74564 23.331 9.74564C23.8424 9.74564 24.267 9.62864 24.605 9.39464C24.9517 9.15197 25.1944 8.83131 25.333 8.43264H26.607C26.4164 9.11731 26.035 9.67631 25.463 10.1096C24.891 10.5343 24.1804 10.7466 23.331 10.7466C22.655 10.7466 22.0484 10.595 21.511 10.2916C20.9824 9.98831 20.5664 9.55931 20.263 9.00464C19.9597 8.44131 19.808 7.79131 19.808 7.05464C19.808 6.31797 19.9554 5.67231 20.25 5.11764C20.5447 4.56297 20.9564 4.1383 21.485 3.84364C22.0224 3.5403 22.6377 3.38864 23.331 3.38864C24.007 3.38864 24.605 3.53597 25.125 3.83064C25.645 4.12531 26.0437 4.53264 26.321 5.05264C26.607 5.56397 26.75 6.14464 26.75 6.79464ZM25.528 6.54764C25.528 6.09697 25.4284 5.7113 25.229 5.39064C25.0297 5.06131 24.7567 4.81431 24.41 4.64964C24.072 4.47631 23.695 4.38964 23.279 4.38964C22.681 4.38964 22.1697 4.58031 21.745 4.96164C21.329 5.34297 21.0907 5.87164 21.03 6.54764H25.528ZM29.4945 4.66264C29.7025 4.2553 29.9972 3.93897 30.3785 3.71364C30.7685 3.48831 31.2409 3.37564 31.7955 3.37564V4.59764H31.4835C30.1575 4.59764 29.4945 5.31697 29.4945 6.75564V10.6296H28.3115V3.50564H29.4945V4.66264ZM36.185 7.04164C36.185 6.31364 36.3323 5.67664 36.627 5.13064C36.9216 4.57597 37.3246 4.14697 37.836 3.84364C38.356 3.5403 38.9323 3.38864 39.565 3.38864C40.189 3.38864 40.7306 3.52297 41.19 3.79164C41.6493 4.0603 41.9916 4.3983 42.217 4.80564V3.50564H43.413V10.6296H42.217V9.30364C41.983 9.71964 41.632 10.0663 41.164 10.3436C40.7046 10.6123 40.1673 10.7466 39.552 10.7466C38.9193 10.7466 38.3473 10.5906 37.836 10.2786C37.3246 9.96664 36.9216 9.52897 36.627 8.96564C36.3323 8.40231 36.185 7.76097 36.185 7.04164ZM42.217 7.05464C42.217 6.51731 42.1086 6.04931 41.892 5.65064C41.6753 5.25197 41.3806 4.94864 41.008 4.74064C40.644 4.52397 40.241 4.41564 39.799 4.41564C39.357 4.41564 38.954 4.51964 38.59 4.72764C38.226 4.93564 37.9356 5.23897 37.719 5.63764C37.5023 6.03631 37.394 6.5043 37.394 7.04164C37.394 7.58764 37.5023 8.06431 37.719 8.47164C37.9356 8.87031 38.226 9.17797 38.59 9.39464C38.954 9.60264 39.357 9.70664 39.799 9.70664C40.241 9.70664 40.644 9.60264 41.008 9.39464C41.3806 9.17797 41.6753 8.87031 41.892 8.47164C42.1086 8.06431 42.217 7.59197 42.217 7.05464ZM48.8831 3.37564C49.7498 3.37564 50.4518 3.63997 50.9891 4.16864C51.5265 4.68864 51.7951 5.44264 51.7951 6.43064V10.6296H50.6251V6.59964C50.6251 5.88897 50.4475 5.34731 50.0921 4.97464C49.7368 4.5933 49.2515 4.40264 48.6361 4.40264C48.0121 4.40264 47.5138 4.59764 47.1411 4.98764C46.7771 5.37764 46.5951 5.94531 46.5951 6.69064V10.6296H45.4121V3.50564H46.5951V4.51964C46.8291 4.15564 47.1455 3.87397 47.5441 3.67464C47.9515 3.4753 48.3978 3.37564 48.8831 3.37564ZM53.2856 7.04164C53.2856 6.31364 53.4329 5.67664 53.7276 5.13064C54.0222 4.57597 54.4252 4.14697 54.9366 3.84364C55.4566 3.5403 56.0372 3.38864 56.6786 3.38864C57.2332 3.38864 57.7489 3.51864 58.2256 3.77864C58.7022 4.02997 59.0662 4.36364 59.3176 4.77964V1.00964H60.5136V10.6296H59.3176V9.29064C59.0836 9.71531 58.7369 10.0663 58.2776 10.3436C57.8182 10.6123 57.2809 10.7466 56.6656 10.7466C56.0329 10.7466 55.4566 10.5906 54.9366 10.2786C54.4252 9.96664 54.0222 9.52897 53.7276 8.96564C53.4329 8.40231 53.2856 7.76097 53.2856 7.04164ZM59.3176 7.05464C59.3176 6.51731 59.2092 6.04931 58.9926 5.65064C58.7759 5.25197 58.4812 4.94864 58.1086 4.74064C57.7446 4.52397 57.3416 4.41564 56.8996 4.41564C56.4576 4.41564 56.0546 4.51964 55.6906 4.72764C55.3266 4.93564 55.0362 5.23897 54.8196 5.63764C54.6029 6.03631 54.4946 6.5043 54.4946 7.04164C54.4946 7.58764 54.6029 8.06431 54.8196 8.47164C55.0362 8.87031 55.3266 9.17797 55.6906 9.39464C56.0546 9.60264 56.4576 9.70664 56.8996 9.70664C57.3416 9.70664 57.7446 9.60264 58.1086 9.39464C58.4812 9.17797 58.7759 8.87031 58.9926 8.47164C59.2092 8.06431 59.3176 7.59197 59.3176 7.05464ZM67.1615 2.53064V5.55964H70.4635V6.53464H67.1615V9.65464H70.8535V10.6296H65.9785V1.55564H70.8535V2.53064H67.1615ZM72.2016 7.04164C72.2016 6.31364 72.3489 5.67664 72.6436 5.13064C72.9382 4.57597 73.3412 4.14697 73.8526 3.84364C74.3726 3.5403 74.9489 3.38864 75.5816 3.38864C76.2056 3.38864 76.7472 3.52297 77.2066 3.79164C77.6659 4.0603 78.0082 4.3983 78.2336 4.80564V3.50564H79.4296V10.6296H78.2336V9.30364C77.9996 9.71964 77.6486 10.0663 77.1806 10.3436C76.7212 10.6123 76.1839 10.7466 75.5686 10.7466C74.9359 10.7466 74.3639 10.5906 73.8526 10.2786C73.3412 9.96664 72.9382 9.52897 72.6436 8.96564C72.3489 8.40231 72.2016 7.76097 72.2016 7.04164ZM78.2336 7.05464C78.2336 6.51731 78.1252 6.04931 77.9086 5.65064C77.6919 5.25197 77.3972 4.94864 77.0246 4.74064C76.6606 4.52397 76.2576 4.41564 75.8156 4.41564C75.3736 4.41564 74.9706 4.51964 74.6066 4.72764C74.2426 4.93564 73.9522 5.23897 73.7356 5.63764C73.5189 6.03631 73.4106 6.5043 73.4106 7.04164C73.4106 7.58764 73.5189 8.06431 73.7356 8.47164C73.9522 8.87031 74.2426 9.17797 74.6066 9.39464C74.9706 9.60264 75.3736 9.70664 75.8156 9.70664C76.2576 9.70664 76.6606 9.60264 77.0246 9.39464C77.3972 9.17797 77.6919 8.87031 77.9086 8.47164C78.1252 8.06431 78.2336 7.59197 78.2336 7.05464ZM82.6117 4.66264C82.8197 4.2553 83.1144 3.93897 83.4957 3.71364C83.8857 3.48831 84.3581 3.37564 84.9127 3.37564V4.59764H84.6007C83.2747 4.59764 82.6117 5.31697 82.6117 6.75564V10.6296H81.4287V3.50564H82.6117V4.66264ZM89.7493 3.37564C90.616 3.37564 91.318 3.63997 91.8553 4.16864C92.3927 4.68864 92.6613 5.44264 92.6613 6.43064V10.6296H91.4913V6.59964C91.4913 5.88897 91.3137 5.34731 90.9583 4.97464C90.603 4.5933 90.1177 4.40264 89.5023 4.40264C88.8783 4.40264 88.38 4.59764 88.0073 4.98764C87.6433 5.37764 87.4613 5.94531 87.4613 6.69064V10.6296H86.2783V3.50564H87.4613V4.51964C87.6953 4.15564 88.0117 3.87397 88.4103 3.67464C88.8177 3.4753 89.264 3.37564 89.7493 3.37564Z" fill="#595959"/>
</svg>
