<svg width="100" height="12" viewBox="0 0 100 12" fill="none" xmlns="http://www.w3.org/2000/svg">
<path d="M5.216 11L2.892 7.01H1.352V11H0.0780001V1.242H3.228C3.96533 1.242 4.586 1.368 5.09 1.62C5.60333 1.872 5.986 2.21267 6.238 2.642C6.49 3.07133 6.616 3.56133 6.616 4.112C6.616 4.784 6.42 5.37667 6.028 5.89C5.64533 6.40333 5.06667 6.744 4.292 6.912L6.742 11H5.216ZM1.352 5.988H3.228C3.91867 5.988 4.43667 5.82 4.782 5.484C5.12733 5.13867 5.3 4.68133 5.3 4.112C5.3 3.53333 5.12733 3.08533 4.782 2.768C4.446 2.45067 3.928 2.292 3.228 2.292H1.352V5.988ZM15.5956 6.87C15.5956 7.11267 15.5816 7.36933 15.5536 7.64H9.42158C9.46824 8.396 9.72491 8.98867 10.1916 9.418C10.6676 9.838 11.2416 10.048 11.9136 10.048C12.4642 10.048 12.9216 9.922 13.2856 9.67C13.6589 9.40867 13.9202 9.06333 14.0696 8.634H15.4416C15.2362 9.37133 14.8256 9.97333 14.2096 10.44C13.5936 10.8973 12.8282 11.126 11.9136 11.126C11.1856 11.126 10.5322 10.9627 9.95358 10.636C9.38424 10.3093 8.93624 9.84733 8.60958 9.25C8.28291 8.64333 8.11958 7.94333 8.11958 7.15C8.11958 6.35667 8.27824 5.66133 8.59558 5.064C8.91291 4.46667 9.35624 4.00933 9.92558 3.692C10.5042 3.36533 11.1669 3.202 11.9136 3.202C12.6416 3.202 13.2856 3.36067 13.8456 3.678C14.4056 3.99533 14.8349 4.434 15.1336 4.994C15.4416 5.54467 15.5956 6.17 15.5956 6.87ZM14.2796 6.604C14.2796 6.11867 14.1722 5.70333 13.9576 5.358C13.7429 5.00333 13.4489 4.73733 13.0756 4.56C12.7116 4.37333 12.3056 4.28 11.8576 4.28C11.2136 4.28 10.6629 4.48533 10.2056 4.896C9.75758 5.30667 9.50091 5.876 9.43558 6.604H14.2796ZM20.3992 4.378H18.7892V11H17.5152V4.378H16.5212V3.328H17.5152V2.782C17.5152 1.92333 17.7346 1.298 18.1732 0.906C18.6212 0.504666 19.3352 0.303999 20.3152 0.303999V1.368C19.7552 1.368 19.3586 1.48 19.1252 1.704C18.9012 1.91867 18.7892 2.278 18.7892 2.782V3.328H20.3992V4.378ZM28.8846 6.87C28.8846 7.11267 28.8706 7.36933 28.8426 7.64H22.7106C22.7573 8.396 23.014 8.98867 23.4806 9.418C23.9566 9.838 24.5306 10.048 25.2026 10.048C25.7533 10.048 26.2106 9.922 26.5746 9.67C26.948 9.40867 27.2093 9.06333 27.3586 8.634H28.7306C28.5253 9.37133 28.1146 9.97333 27.4986 10.44C26.8826 10.8973 26.1173 11.126 25.2026 11.126C24.4746 11.126 23.8213 10.9627 23.2426 10.636C22.6733 10.3093 22.2253 9.84733 21.8986 9.25C21.572 8.64333 21.4086 7.94333 21.4086 7.15C21.4086 6.35667 21.5673 5.66133 21.8846 5.064C22.202 4.46667 22.6453 4.00933 23.2146 3.692C23.7933 3.36533 24.456 3.202 25.2026 3.202C25.9306 3.202 26.5746 3.36067 27.1346 3.678C27.6946 3.99533 28.124 4.434 28.4226 4.994C28.7306 5.54467 28.8846 6.17 28.8846 6.87ZM27.5686 6.604C27.5686 6.11867 27.4613 5.70333 27.2466 5.358C27.032 5.00333 26.738 4.73733 26.3646 4.56C26.0006 4.37333 25.5946 4.28 25.1466 4.28C24.5026 4.28 23.952 4.48533 23.4946 4.896C23.0466 5.30667 22.79 5.876 22.7246 6.604H27.5686ZM31.8403 4.574C32.0643 4.13533 32.3816 3.79467 32.7923 3.552C33.2123 3.30933 33.7209 3.188 34.3183 3.188V4.504H33.9823C32.5543 4.504 31.8403 5.27867 31.8403 6.828V11H30.5663V3.328H31.8403V4.574ZM39.0454 7.136C39.0454 6.352 39.204 5.666 39.5214 5.078C39.8387 4.48067 40.2727 4.01867 40.8234 3.692C41.3834 3.36533 42.004 3.202 42.6854 3.202C43.3574 3.202 43.9407 3.34667 44.4354 3.636C44.93 3.92533 45.2987 4.28933 45.5414 4.728V3.328H46.8294V11H45.5414V9.572C45.2894 10.02 44.9114 10.3933 44.4074 10.692C43.9127 10.9813 43.334 11.126 42.6714 11.126C41.99 11.126 41.374 10.958 40.8234 10.622C40.2727 10.286 39.8387 9.81467 39.5214 9.208C39.204 8.60133 39.0454 7.91067 39.0454 7.136ZM45.5414 7.15C45.5414 6.57133 45.4247 6.06733 45.1914 5.638C44.958 5.20867 44.6407 4.882 44.2394 4.658C43.8474 4.42467 43.4134 4.308 42.9374 4.308C42.4614 4.308 42.0274 4.42 41.6354 4.644C41.2434 4.868 40.9307 5.19467 40.6974 5.624C40.464 6.05333 40.3474 6.55733 40.3474 7.136C40.3474 7.724 40.464 8.23733 40.6974 8.676C40.9307 9.10533 41.2434 9.43667 41.6354 9.67C42.0274 9.894 42.4614 10.006 42.9374 10.006C43.4134 10.006 43.8474 9.894 44.2394 9.67C44.6407 9.43667 44.958 9.10533 45.1914 8.676C45.4247 8.23733 45.5414 7.72867 45.5414 7.15ZM52.7203 3.188C53.6536 3.188 54.4096 3.47267 54.9883 4.042C55.567 4.602 55.8563 5.414 55.8563 6.478V11H54.5963V6.66C54.5963 5.89467 54.405 5.31133 54.0223 4.91C53.6396 4.49933 53.117 4.294 52.4543 4.294C51.7823 4.294 51.2456 4.504 50.8443 4.924C50.4523 5.344 50.2563 5.95533 50.2563 6.758V11H48.9823V3.328H50.2563V4.42C50.5083 4.028 50.849 3.72467 51.2783 3.51C51.717 3.29533 52.1976 3.188 52.7203 3.188ZM57.4614 7.136C57.4614 6.352 57.62 5.666 57.9374 5.078C58.2547 4.48067 58.6887 4.01867 59.2394 3.692C59.7994 3.36533 60.4247 3.202 61.1154 3.202C61.7127 3.202 62.268 3.342 62.7814 3.622C63.2947 3.89267 63.6867 4.252 63.9574 4.7V0.64H65.2454V11H63.9574V9.558C63.7054 10.0153 63.332 10.3933 62.8374 10.692C62.3427 10.9813 61.764 11.126 61.1014 11.126C60.42 11.126 59.7994 10.958 59.2394 10.622C58.6887 10.286 58.2547 9.81467 57.9374 9.208C57.62 8.60133 57.4614 7.91067 57.4614 7.136ZM63.9574 7.15C63.9574 6.57133 63.8407 6.06733 63.6074 5.638C63.374 5.20867 63.0567 4.882 62.6554 4.658C62.2634 4.42467 61.8294 4.308 61.3534 4.308C60.8774 4.308 60.4434 4.42 60.0514 4.644C59.6594 4.868 59.3467 5.19467 59.1134 5.624C58.88 6.05333 58.7634 6.55733 58.7634 7.136C58.7634 7.724 58.88 8.23733 59.1134 8.676C59.3467 9.10533 59.6594 9.43667 60.0514 9.67C60.4434 9.894 60.8774 10.006 61.3534 10.006C61.8294 10.006 62.2634 9.894 62.6554 9.67C63.0567 9.43667 63.374 9.10533 63.6074 8.676C63.8407 8.23733 63.9574 7.72867 63.9574 7.15ZM72.4047 2.278V5.54H75.9607V6.59H72.4047V9.95H76.3807V11H71.1307V1.228H76.3807V2.278H72.4047ZM77.8325 7.136C77.8325 6.352 77.9911 5.666 78.3085 5.078C78.6258 4.48067 79.0598 4.01867 79.6105 3.692C80.1705 3.36533 80.7911 3.202 81.4725 3.202C82.1445 3.202 82.7278 3.34667 83.2225 3.636C83.7171 3.92533 84.0858 4.28933 84.3285 4.728V3.328H85.6165V11H84.3285V9.572C84.0765 10.02 83.6985 10.3933 83.1945 10.692C82.6998 10.9813 82.1211 11.126 81.4585 11.126C80.7771 11.126 80.1611 10.958 79.6105 10.622C79.0598 10.286 78.6258 9.81467 78.3085 9.208C77.9911 8.60133 77.8325 7.91067 77.8325 7.136ZM84.3285 7.15C84.3285 6.57133 84.2118 6.06733 83.9785 5.638C83.7451 5.20867 83.4278 4.882 83.0265 4.658C82.6345 4.42467 82.2005 4.308 81.7245 4.308C81.2485 4.308 80.8145 4.42 80.4225 4.644C80.0305 4.868 79.7178 5.19467 79.4845 5.624C79.2511 6.05333 79.1345 6.55733 79.1345 7.136C79.1345 7.724 79.2511 8.23733 79.4845 8.676C79.7178 9.10533 80.0305 9.43667 80.4225 9.67C80.8145 9.894 81.2485 10.006 81.7245 10.006C82.2005 10.006 82.6345 9.894 83.0265 9.67C83.4278 9.43667 83.7451 9.10533 83.9785 8.676C84.2118 8.23733 84.3285 7.72867 84.3285 7.15ZM89.0434 4.574C89.2674 4.13533 89.5847 3.79467 89.9954 3.552C90.4154 3.30933 90.9241 3.188 91.5214 3.188V4.504H91.1854C89.7574 4.504 89.0434 5.27867 89.0434 6.828V11H87.7694V3.328H89.0434V4.574ZM96.7301 3.188C97.6634 3.188 98.4194 3.47267 98.9981 4.042C99.5767 4.602 99.8661 5.414 99.8661 6.478V11H98.6061V6.66C98.6061 5.89467 98.4147 5.31133 98.0321 4.91C97.6494 4.49933 97.1267 4.294 96.4641 4.294C95.7921 4.294 95.2554 4.504 94.8541 4.924C94.4621 5.344 94.2661 5.95533 94.2661 6.758V11H92.9921V3.328H94.2661V4.42C94.5181 4.028 94.8587 3.72467 95.2881 3.51C95.7267 3.29533 96.2074 3.188 96.7301 3.188Z" fill="white"/>
</svg>
