<svg width="125" height="36" viewBox="0 0 125 36" fill="none" xmlns="http://www.w3.org/2000/svg">
<path d="M14.456 35.336C10.52 35.336 7.288 34.408 4.76 32.552C2.232 30.664 0.872 27.976 0.68 24.488H10.712C10.808 25.672 11.16 26.536 11.768 27.08C12.376 27.624 13.16 27.896 14.12 27.896C14.984 27.896 15.688 27.688 16.232 27.272C16.808 26.824 17.096 26.216 17.096 25.448C17.096 24.456 16.632 23.688 15.704 23.144C14.776 22.6 13.272 21.992 11.192 21.32C8.984 20.584 7.192 19.88 5.816 19.208C4.472 18.504 3.288 17.496 2.264 16.184C1.272 14.84 0.776 13.096 0.776 10.952C0.776 8.776 1.32 6.92 2.408 5.384C3.496 3.816 5 2.632 6.92 1.832C8.84 1.032 11.016 0.631999 13.448 0.631999C17.384 0.631999 20.52 1.56 22.856 3.416C25.224 5.24 26.488 7.816 26.648 11.144H16.424C16.392 10.12 16.072 9.352 15.464 8.84C14.888 8.328 14.136 8.072 13.208 8.072C12.504 8.072 11.928 8.28 11.48 8.696C11.032 9.112 10.808 9.704 10.808 10.472C10.808 11.112 11.048 11.672 11.528 12.152C12.04 12.6 12.664 13 13.4 13.352C14.136 13.672 15.224 14.088 16.664 14.6C18.808 15.336 20.568 16.072 21.944 16.808C23.352 17.512 24.552 18.52 25.544 19.832C26.568 21.112 27.08 22.744 27.08 24.728C27.08 26.744 26.568 28.552 25.544 30.152C24.552 31.752 23.096 33.016 21.176 33.944C19.288 34.872 17.048 35.336 14.456 35.336ZM56.7016 29.48H44.7016L42.8776 35H32.9896L45.3256 1.16H56.1736L68.4616 35H58.5256L56.7016 29.48ZM54.3496 22.28L50.7016 11.336L47.1016 22.28H54.3496ZM84.776 27.8H95.288V35H75.368V1.16H84.776V27.8ZM112.194 8.696V14.216H122.994V21.368H112.194V27.464H124.434V35H102.786V1.16H124.434V8.696H112.194Z" fill="#D00000"/>
</svg>
