<svg width="187" height="15" viewBox="0 0 187 15" fill="none" xmlns="http://www.w3.org/2000/svg">
<path d="M4.256 14.126C3.428 14.126 2.696 13.982 2.06 13.694C1.436 13.406 0.944 13.004 0.584 12.488C0.224 11.972 0.032 11.396 0.00800003 10.76H1.34C1.4 11.372 1.67 11.912 2.15 12.38C2.63 12.836 3.332 13.064 4.256 13.064C5.108 13.064 5.78 12.848 6.272 12.416C6.776 11.972 7.028 11.414 7.028 10.742C7.028 10.202 6.89 9.77 6.614 9.446C6.338 9.11 5.996 8.864 5.588 8.708C5.18 8.54 4.616 8.36 3.896 8.168C3.056 7.94 2.39 7.718 1.898 7.502C1.406 7.286 0.986 6.95 0.638 6.494C0.29 6.038 0.116 5.42 0.116 4.64C0.116 3.992 0.284 3.416 0.62 2.912C0.956 2.396 1.43 1.994 2.042 1.706C2.654 1.418 3.356 1.274 4.148 1.274C5.312 1.274 6.248 1.562 6.956 2.138C7.676 2.702 8.09 3.434 8.198 4.334H6.83C6.746 3.818 6.464 3.362 5.984 2.966C5.504 2.558 4.856 2.354 4.04 2.354C3.284 2.354 2.654 2.558 2.15 2.966C1.646 3.362 1.394 3.908 1.394 4.604C1.394 5.132 1.532 5.558 1.808 5.882C2.084 6.206 2.426 6.452 2.834 6.62C3.254 6.788 3.818 6.968 4.526 7.16C5.342 7.388 6.002 7.616 6.506 7.844C7.01 8.06 7.436 8.396 7.784 8.852C8.132 9.308 8.306 9.92 8.306 10.688C8.306 11.276 8.15 11.834 7.838 12.362C7.526 12.89 7.064 13.316 6.452 13.64C5.84 13.964 5.108 14.126 4.256 14.126ZM18.7508 11.012H13.0268L11.9288 14H10.5968L15.1868 1.58H16.6088L21.1808 14H19.8488L18.7508 11.012ZM18.3728 9.968L15.8888 3.164L13.4048 9.968H18.3728ZM33.895 1.418L29.125 14H27.685L22.915 1.418H24.283L28.405 12.632L32.563 1.418H33.895ZM37.7682 2.444V7.142H42.5382V8.186H37.7682V12.956H43.0782V14H36.5082V1.4H43.0782V2.444H37.7682ZM53.1464 1.418V9.338C53.1464 10.586 53.4404 11.51 54.0284 12.11C54.6284 12.71 55.4444 13.01 56.4764 13.01C57.5084 13.01 58.3124 12.716 58.8884 12.128C59.4764 11.528 59.7704 10.598 59.7704 9.338V1.418H61.0304V9.32C61.0304 10.916 60.6044 12.116 59.7524 12.92C58.9124 13.724 57.8144 14.126 56.4584 14.126C55.1024 14.126 53.9984 13.724 53.1464 12.92C52.3064 12.116 51.8864 10.916 51.8864 9.32V1.418H53.1464ZM72.6068 5.036C72.6068 6.116 72.2528 6.986 71.5448 7.646C70.8368 8.306 69.7748 8.636 68.3588 8.636H65.8208V14H64.5608V1.418H68.3588C69.7628 1.418 70.8188 1.748 71.5268 2.408C72.2468 3.068 72.6068 3.944 72.6068 5.036ZM68.3588 7.556C70.3268 7.556 71.3108 6.716 71.3108 5.036C71.3108 4.196 71.0768 3.56 70.6088 3.128C70.1408 2.696 69.3908 2.48 68.3588 2.48H65.8208V7.556H68.3588ZM88.4624 1.418V2.462H84.9704V14H83.7104V2.462H80.2004V1.418H88.4624ZM96.824 14.126C95.66 14.126 94.604 13.856 93.656 13.316C92.708 12.764 91.958 12.002 91.406 11.03C90.866 10.046 90.596 8.936 90.596 7.7C90.596 6.464 90.866 5.36 91.406 4.388C91.958 3.404 92.708 2.642 93.656 2.102C94.604 1.55 95.66 1.274 96.824 1.274C98 1.274 99.062 1.55 100.01 2.102C100.958 2.642 101.702 3.404 102.242 4.388C102.782 5.36 103.052 6.464 103.052 7.7C103.052 8.936 102.782 10.046 102.242 11.03C101.702 12.002 100.958 12.764 100.01 13.316C99.062 13.856 98 14.126 96.824 14.126ZM96.824 13.028C97.76 13.028 98.6 12.812 99.344 12.38C100.088 11.948 100.676 11.33 101.108 10.526C101.54 9.71 101.756 8.768 101.756 7.7C101.756 6.632 101.54 5.696 101.108 4.892C100.676 4.088 100.088 3.47 99.344 3.038C98.6 2.606 97.76 2.39 96.824 2.39C95.888 2.39 95.048 2.606 94.304 3.038C93.56 3.47 92.972 4.088 92.54 4.892C92.108 5.696 91.892 6.632 91.892 7.7C91.892 8.768 92.108 9.71 92.54 10.526C92.972 11.33 93.56 11.948 94.304 12.38C95.048 12.812 95.888 13.028 96.824 13.028ZM119.603 2.174H113.015V6.782C113.315 6.362 113.753 6.02 114.329 5.756C114.905 5.48 115.529 5.342 116.201 5.342C117.185 5.342 117.989 5.546 118.613 5.954C119.237 6.35 119.687 6.872 119.963 7.52C120.239 8.156 120.377 8.84 120.377 9.572C120.377 10.412 120.215 11.174 119.891 11.858C119.579 12.53 119.093 13.064 118.433 13.46C117.785 13.856 116.975 14.054 116.003 14.054C114.767 14.054 113.765 13.736 112.997 13.1C112.229 12.452 111.761 11.582 111.593 10.49H112.835C112.991 11.282 113.351 11.894 113.915 12.326C114.479 12.758 115.175 12.974 116.003 12.974C117.047 12.974 117.833 12.668 118.361 12.056C118.901 11.432 119.171 10.61 119.171 9.59C119.171 8.594 118.901 7.82 118.361 7.268C117.821 6.704 117.047 6.422 116.039 6.422C115.343 6.422 114.731 6.584 114.203 6.908C113.675 7.232 113.285 7.67 113.033 8.222H111.845V1.076H119.603V2.174ZM123.296 7.43C123.296 5.366 123.614 3.764 124.25 2.624C124.886 1.484 126.026 0.913999 127.67 0.913999C129.314 0.913999 130.454 1.484 131.09 2.624C131.726 3.764 132.044 5.366 132.044 7.43C132.044 9.53 131.726 11.156 131.09 12.308C130.454 13.46 129.314 14.036 127.67 14.036C126.014 14.036 124.868 13.46 124.232 12.308C123.608 11.156 123.296 9.53 123.296 7.43ZM130.802 7.43C130.802 6.314 130.724 5.372 130.568 4.604C130.412 3.836 130.106 3.218 129.65 2.75C129.194 2.282 128.534 2.048 127.67 2.048C126.806 2.048 126.146 2.282 125.69 2.75C125.234 3.218 124.928 3.836 124.772 4.604C124.616 5.372 124.538 6.314 124.538 7.43C124.538 8.582 124.616 9.548 124.772 10.328C124.928 11.096 125.234 11.714 125.69 12.182C126.146 12.65 126.806 12.884 127.67 12.884C128.534 12.884 129.194 12.65 129.65 12.182C130.106 11.714 130.412 11.096 130.568 10.328C130.724 9.548 130.802 8.582 130.802 7.43ZM134.712 3.794C134.712 3.026 134.946 2.408 135.414 1.94C135.894 1.46 136.5 1.22 137.232 1.22C137.976 1.22 138.582 1.46 139.05 1.94C139.53 2.408 139.77 3.026 139.77 3.794C139.77 4.574 139.53 5.204 139.05 5.684C138.582 6.152 137.976 6.386 137.232 6.386C136.5 6.386 135.894 6.152 135.414 5.684C134.946 5.204 134.712 4.574 134.712 3.794ZM144.792 1.4L137.412 14H136.134L143.532 1.4H144.792ZM137.232 2.03C136.776 2.03 136.41 2.186 136.134 2.498C135.87 2.798 135.738 3.23 135.738 3.794C135.738 4.358 135.87 4.796 136.134 5.108C136.41 5.42 136.776 5.576 137.232 5.576C137.688 5.576 138.054 5.42 138.33 5.108C138.606 4.796 138.744 4.358 138.744 3.794C138.744 3.242 138.606 2.81 138.33 2.498C138.054 2.186 137.688 2.03 137.232 2.03ZM141.192 11.606C141.192 10.826 141.426 10.202 141.894 9.734C142.374 9.254 142.98 9.014 143.712 9.014C144.444 9.014 145.044 9.254 145.512 9.734C145.992 10.202 146.232 10.826 146.232 11.606C146.232 12.386 145.992 13.016 145.512 13.496C145.044 13.964 144.444 14.198 143.712 14.198C142.98 14.198 142.374 13.964 141.894 13.496C141.426 13.016 141.192 12.386 141.192 11.606ZM143.712 9.842C143.256 9.842 142.89 9.998 142.614 10.31C142.338 10.622 142.2 11.054 142.2 11.606C142.2 12.158 142.338 12.59 142.614 12.902C142.89 13.214 143.256 13.37 143.712 13.37C144.168 13.37 144.528 13.22 144.792 12.92C145.068 12.608 145.206 12.17 145.206 11.606C145.206 11.042 145.068 10.61 144.792 10.31C144.528 9.998 144.168 9.842 143.712 9.842ZM160.47 14.126C159.306 14.126 158.25 13.856 157.302 13.316C156.354 12.764 155.604 12.002 155.052 11.03C154.512 10.046 154.242 8.936 154.242 7.7C154.242 6.464 154.512 5.36 155.052 4.388C155.604 3.404 156.354 2.642 157.302 2.102C158.25 1.55 159.306 1.274 160.47 1.274C161.646 1.274 162.708 1.55 163.656 2.102C164.604 2.642 165.348 3.404 165.888 4.388C166.428 5.36 166.698 6.464 166.698 7.7C166.698 8.936 166.428 10.046 165.888 11.03C165.348 12.002 164.604 12.764 163.656 13.316C162.708 13.856 161.646 14.126 160.47 14.126ZM160.47 13.028C161.406 13.028 162.246 12.812 162.99 12.38C163.734 11.948 164.322 11.33 164.754 10.526C165.186 9.71 165.402 8.768 165.402 7.7C165.402 6.632 165.186 5.696 164.754 4.892C164.322 4.088 163.734 3.47 162.99 3.038C162.246 2.606 161.406 2.39 160.47 2.39C159.534 2.39 158.694 2.606 157.95 3.038C157.206 3.47 156.618 4.088 156.186 4.892C155.754 5.696 155.538 6.632 155.538 7.7C155.538 8.768 155.754 9.71 156.186 10.526C156.618 11.33 157.206 11.948 157.95 12.38C158.694 12.812 159.534 13.028 160.47 13.028ZM176.528 1.418V2.462H170.984V7.16H175.664V8.204H170.984V14H169.724V1.418H176.528ZM186.125 1.418V2.462H180.581V7.16H185.261V8.204H180.581V14H179.321V1.418H186.125Z" fill="#14213D"/>
</svg>
