<svg width="67" height="14" viewBox="0 0 67 14" fill="none" xmlns="http://www.w3.org/2000/svg">
<path d="M4.472 13.126C3.632 13.126 2.876 12.982 2.204 12.694C1.532 12.394 1.004 11.974 0.62 11.434C0.236 10.894 0.044 10.264 0.044 9.544H2.24C2.288 10.084 2.498 10.528 2.87 10.876C3.254 11.224 3.788 11.398 4.472 11.398C5.18 11.398 5.732 11.23 6.128 10.894C6.524 10.546 6.722 10.102 6.722 9.562C6.722 9.142 6.596 8.8 6.344 8.536C6.104 8.272 5.798 8.068 5.426 7.924C5.066 7.78 4.562 7.624 3.914 7.456C3.098 7.24 2.432 7.024 1.916 6.808C1.412 6.58 0.98 6.232 0.62 5.764C0.26 5.296 0.08 4.672 0.08 3.892C0.08 3.172 0.26 2.542 0.62 2.002C0.98 1.462 1.484 1.048 2.132 0.76C2.78 0.471999 3.53 0.327999 4.382 0.327999C5.594 0.327999 6.584 0.633999 7.352 1.246C8.132 1.846 8.564 2.674 8.648 3.73H6.38C6.344 3.274 6.128 2.884 5.732 2.56C5.336 2.236 4.814 2.074 4.166 2.074C3.578 2.074 3.098 2.224 2.726 2.524C2.354 2.824 2.168 3.256 2.168 3.82C2.168 4.204 2.282 4.522 2.51 4.774C2.75 5.014 3.05 5.206 3.41 5.35C3.77 5.494 4.262 5.65 4.886 5.818C5.714 6.046 6.386 6.274 6.902 6.502C7.43 6.73 7.874 7.084 8.234 7.564C8.606 8.032 8.792 8.662 8.792 9.454C8.792 10.09 8.618 10.69 8.27 11.254C7.934 11.818 7.436 12.274 6.776 12.622C6.128 12.958 5.36 13.126 4.472 13.126ZM19.9613 4.216C19.9613 4.852 19.8113 5.452 19.5113 6.016C19.2113 6.58 18.7313 7.042 18.0713 7.402C17.4113 7.75 16.5653 7.924 15.5333 7.924H13.2653V13H11.2133V0.489999H15.5333C16.4933 0.489999 17.3033 0.657999 17.9633 0.993999C18.6353 1.318 19.1333 1.762 19.4573 2.326C19.7933 2.89 19.9613 3.52 19.9613 4.216ZM15.5333 6.25C16.3133 6.25 16.8953 6.076 17.2793 5.728C17.6633 5.368 17.8553 4.864 17.8553 4.216C17.8553 2.848 17.0813 2.164 15.5333 2.164H13.2653V6.25H15.5333ZM27.6244 13.126C26.4604 13.126 25.3864 12.856 24.4024 12.316C23.4304 11.764 22.6564 11.002 22.0804 10.03C21.5164 9.046 21.2344 7.942 21.2344 6.718C21.2344 5.494 21.5164 4.396 22.0804 3.424C22.6564 2.452 23.4304 1.696 24.4024 1.156C25.3864 0.603999 26.4604 0.327999 27.6244 0.327999C28.8004 0.327999 29.8744 0.603999 30.8464 1.156C31.8304 1.696 32.6044 2.452 33.1684 3.424C33.7324 4.396 34.0144 5.494 34.0144 6.718C34.0144 7.942 33.7324 9.046 33.1684 10.03C32.6044 11.002 31.8304 11.764 30.8464 12.316C29.8744 12.856 28.8004 13.126 27.6244 13.126ZM27.6244 11.344C28.4524 11.344 29.1904 11.158 29.8384 10.786C30.4864 10.402 30.9904 9.862 31.3504 9.166C31.7224 8.458 31.9084 7.642 31.9084 6.718C31.9084 5.794 31.7224 4.984 31.3504 4.288C30.9904 3.592 30.4864 3.058 29.8384 2.686C29.1904 2.314 28.4524 2.128 27.6244 2.128C26.7964 2.128 26.0584 2.314 25.4104 2.686C24.7624 3.058 24.2524 3.592 23.8804 4.288C23.5204 4.984 23.3404 5.794 23.3404 6.718C23.3404 7.642 23.5204 8.458 23.8804 9.166C24.2524 9.862 24.7624 10.402 25.4104 10.786C26.0584 11.158 26.7964 11.344 27.6244 11.344ZM42.5316 13L39.6516 7.996H38.0856V13H36.0336V0.489999H40.3536C41.3136 0.489999 42.1236 0.657999 42.7836 0.993999C43.4556 1.33 43.9536 1.78 44.2776 2.344C44.6136 2.908 44.7816 3.538 44.7816 4.234C44.7816 5.05 44.5416 5.794 44.0616 6.466C43.5936 7.126 42.8676 7.576 41.8836 7.816L44.9796 13H42.5316ZM38.0856 6.358H40.3536C41.1216 6.358 41.6976 6.166 42.0816 5.782C42.4776 5.398 42.6756 4.882 42.6756 4.234C42.6756 3.586 42.4836 3.082 42.0996 2.722C41.7156 2.35 41.1336 2.164 40.3536 2.164H38.0856V6.358ZM55.4886 0.489999V2.164H52.1586V13H50.1066V2.164H46.7586V0.489999H55.4886ZM61.6888 13.126C60.8488 13.126 60.0928 12.982 59.4208 12.694C58.7488 12.394 58.2208 11.974 57.8368 11.434C57.4528 10.894 57.2608 10.264 57.2608 9.544H59.4568C59.5048 10.084 59.7148 10.528 60.0868 10.876C60.4708 11.224 61.0048 11.398 61.6888 11.398C62.3968 11.398 62.9488 11.23 63.3448 10.894C63.7408 10.546 63.9388 10.102 63.9388 9.562C63.9388 9.142 63.8128 8.8 63.5608 8.536C63.3208 8.272 63.0148 8.068 62.6428 7.924C62.2828 7.78 61.7788 7.624 61.1308 7.456C60.3148 7.24 59.6488 7.024 59.1328 6.808C58.6288 6.58 58.1968 6.232 57.8368 5.764C57.4768 5.296 57.2968 4.672 57.2968 3.892C57.2968 3.172 57.4768 2.542 57.8368 2.002C58.1968 1.462 58.7008 1.048 59.3488 0.76C59.9968 0.471999 60.7468 0.327999 61.5988 0.327999C62.8108 0.327999 63.8008 0.633999 64.5688 1.246C65.3488 1.846 65.7808 2.674 65.8648 3.73H63.5968C63.5608 3.274 63.3448 2.884 62.9488 2.56C62.5528 2.236 62.0308 2.074 61.3828 2.074C60.7948 2.074 60.3148 2.224 59.9428 2.524C59.5708 2.824 59.3848 3.256 59.3848 3.82C59.3848 4.204 59.4988 4.522 59.7268 4.774C59.9668 5.014 60.2668 5.206 60.6268 5.35C60.9868 5.494 61.4788 5.65 62.1028 5.818C62.9308 6.046 63.6028 6.274 64.1188 6.502C64.6468 6.73 65.0908 7.084 65.4508 7.564C65.8228 8.032 66.0088 8.662 66.0088 9.454C66.0088 10.09 65.8348 10.69 65.4868 11.254C65.1508 11.818 64.6528 12.274 63.9928 12.622C63.3448 12.958 62.5768 13.126 61.6888 13.126Z" fill="white"/>
</svg>
