<svg width="64" height="13" viewBox="0 0 64 13" fill="none" xmlns="http://www.w3.org/2000/svg">
<path d="M9.432 0.489999V2.164H6.102V13H4.05V2.164H0.702V0.489999H9.432ZM18.0082 13L15.1282 7.996H13.5622V13H11.5102V0.489999H15.8302C16.7902 0.489999 17.6002 0.657999 18.2602 0.993999C18.9322 1.33 19.4302 1.78 19.7542 2.344C20.0902 2.908 20.2582 3.538 20.2582 4.234C20.2582 5.05 20.0182 5.794 19.5382 6.466C19.0702 7.126 18.3442 7.576 17.3602 7.816L20.4562 13H18.0082ZM13.5622 6.358H15.8302C16.5982 6.358 17.1742 6.166 17.5582 5.782C17.9542 5.398 18.1522 4.882 18.1522 4.234C18.1522 3.586 17.9602 3.082 17.5762 2.722C17.1922 2.35 16.6102 2.164 15.8302 2.164H13.5622V6.358ZM30.4252 10.444H25.1872L24.2872 13H22.1452L26.6272 0.471999H29.0032L33.4852 13H31.3252L30.4252 10.444ZM29.8492 8.77L27.8152 2.956L25.7632 8.77H29.8492ZM46.216 0.489999L41.518 13H39.142L34.426 0.489999H36.622L40.33 10.894L44.056 0.489999H46.216ZM49.984 2.146V5.818H54.304V7.492H49.984V11.326H54.844V13H47.932V0.471999H54.844V2.146H49.984ZM59.4235 11.344H63.6535V13H57.3715V0.489999H59.4235V11.344Z" fill="white"/>
</svg>
