<svg width="21" height="18" viewBox="0 0 21 18" fill="none" xmlns="http://www.w3.org/2000/svg">
<path d="M14.2851 1.29776C14.6485 3.26593 15.3207 5.80941 15.9989 7.67463L16.986 10.3211C17.6885 12.1863 18.7725 14.5723 19.7596 16.3104L20.668 17.9152H13.407L13.1708 16.6737C13.0436 15.7411 12.7832 14.6268 12.4986 13.561H5.08012L5.00139 13.7427C4.54114 14.9599 4.56537 16.5708 5.08012 17.788L5.13462 17.9152H0.52002L1.40418 17.1885C2.41552 16.3588 3.40263 15.0083 3.89316 13.7911L8.22314 2.59372C8.06568 2.28487 7.88401 1.96996 7.73261 1.70956L6.8 0.0744629H14.061L14.2851 1.29776ZM5.41925 12.6829H12.2624C12.002 11.8532 11.7416 11.0235 11.4873 10.3211L10.5002 7.67463C10.0581 6.50584 9.4646 5.10692 8.81662 3.81096L5.41925 12.6829Z" fill="#213A8F"/>
</svg>
