<svg width="14" height="19" viewBox="0 0 14 19" fill="none" xmlns="http://www.w3.org/2000/svg">
<path d="M8.56 9.73351C8.56 8.55261 7.96652 7.69873 6.94307 7.69873C5.98018 7.69873 5.2353 8.4436 5.2353 10.0363V17.3034C5.2353 17.6122 5.43515 17.8303 5.73794 17.8303H5.99834V18.3329H2.41325C1.6502 18.3329 1.14756 17.8303 1.14756 17.0612V1.48536C1.14756 1.17651 0.953772 0.958498 0.644921 0.958498H0.384521V0.461914H3.95145C4.7145 0.461914 5.24135 0.964554 5.24135 1.73365V7.48677C6.05285 6.15447 7.42754 5.30058 9.06869 5.30058C11.2791 5.32481 12.6356 6.98413 12.6356 9.01891V17.3034C12.6356 17.6122 12.8536 17.8303 13.1625 17.8303H13.4047V18.3329H9.8378C9.07475 18.3329 8.5721 17.8303 8.5721 17.0612V9.73351H8.56Z" fill="#DE3F39"/>
</svg>
