<svg width="38" height="41" viewBox="0 0 38 41" fill="none" xmlns="http://www.w3.org/2000/svg">
<path d="M18.0631 0.629639C10.1208 0.629639 3.24572 5.29853 0.0441895 12.0402C0.0749734 12.0813 5.81106 20.4545 1.33712 31.4136C4.8978 36.8828 11.0546 40.5051 18.0528 40.5051C29.0427 40.5051 37.9905 31.5572 37.9905 20.5674C38.0008 9.5775 29.0529 0.629639 18.0631 0.629639ZM18.0631 34.2867C10.5005 34.2867 4.34368 28.1299 4.34368 20.5674C4.34368 13.0048 10.5005 6.84799 18.0631 6.84799C25.6256 6.84799 31.7824 13.0048 31.7824 20.5674C31.7722 28.1299 25.6256 34.2867 18.0631 34.2867Z" fill="#DF3E39"/>
</svg>
