<svg width="16" height="19" viewBox="0 0 16 19" fill="none" xmlns="http://www.w3.org/2000/svg">
<path d="M2.39123 18.3329C1.62819 18.3329 1.11949 17.8303 1.11949 17.0612V1.5762C1.11949 1.22496 0.859086 0.964554 0.507843 0.964554H0.356445V0.461914H7.09668C12.9164 0.461914 15.9565 4.02884 15.9565 9.49733C15.9565 14.99 12.8922 18.3329 7.09668 18.3329H2.39123ZM5.21329 13.2762C5.21329 16.3587 5.03767 17.3034 7.24807 17.3034C10.706 17.3034 11.8627 15.0082 11.8627 9.47311C11.8627 4.54965 10.924 1.49142 7.24807 1.49142C5.34652 1.49142 5.21329 2.32108 5.21329 5.38537V13.2762Z" fill="#DE3F39"/>
</svg>
