<svg width="18" height="19" viewBox="0 0 18 19" fill="none" xmlns="http://www.w3.org/2000/svg">
<path d="M9.86693 0.0805664H17.0492L16.8131 0.728549C16.4739 1.66116 16.268 2.9329 16.268 3.94424V14.0576C16.268 15.0689 16.4739 16.3407 16.8131 17.2491L17.0492 17.9213H10.7511V16.8797C9.94566 17.9152 8.60125 18.6177 6.6573 18.6177C3.10854 18.6177 0.0987549 16.2317 0.0987549 11.6171C0.0987549 7.00247 3.10854 4.61644 6.55435 4.61644C8.86166 4.61644 10.0304 5.70651 10.7572 7.15993V3.71411C10.7572 2.86023 10.5513 1.74594 10.2363 0.964729L9.86693 0.0805664ZM10.7511 9.6489C10.7511 8.55884 9.81849 5.47638 8.02594 5.47638C6.08199 5.47638 5.17361 8.95247 5.17361 11.4899C5.17361 13.4338 5.71864 17.9213 7.71709 17.8426C8.60125 17.8426 10.7511 16.9584 10.7511 14.0818V9.6489Z" fill="#213A8F"/>
</svg>
