<svg width="12" height="14" viewBox="0 0 12 14" fill="none" xmlns="http://www.w3.org/2000/svg">
<path d="M4.18271 8.34288C4.26749 11.3829 5.78147 12.5639 7.31361 12.5639C8.99716 12.5639 10.6625 11.0983 10.9472 9.49956H11.9767C11.2136 12.1218 9.30601 13.5873 6.48395 13.5873C2.72323 13.5873 0.0949707 11.0075 0.0949707 7.00453C0.0949707 3.04396 2.63239 0.312744 6.50212 0.312744C9.23939 0.312744 11.2923 1.66927 11.2923 3.77067C11.3347 5.73884 9.54219 7.77363 4.18271 8.34288ZM6.34467 1.32408C4.46128 1.32408 4.26749 5.35126 4.20088 7.3376C6.95632 6.39893 7.85259 4.33992 7.83442 3.15902C7.83442 2.30514 7.26517 1.32408 6.34467 1.32408Z" fill="#DE3F39"/>
</svg>
