<svg width="13" height="19" viewBox="0 0 13 19" fill="none" xmlns="http://www.w3.org/2000/svg">
<path d="M5.524 14.3299V17.3034C5.524 17.6122 5.72384 17.8303 6.02664 17.8303H6.28705V18.3329H2.70195C1.93891 18.3329 1.43626 17.8303 1.43626 17.0612V1.48536C1.43626 1.17651 1.24247 0.958498 0.933622 0.958498H0.673218V0.461914H4.24015C5.00319 0.461914 5.53006 0.964554 5.53006 1.73365V11.4897L10.2537 6.39065C10.4293 6.21503 10.3385 6.0818 10.1023 6.0818H10.078V5.55493H12.3975L12.3732 5.59733V6.07574H12.3308C12.0886 6.07574 11.804 6.20897 11.6284 6.38459L7.93426 10.3875L12.1128 17.4548C12.2461 17.697 12.5307 17.8242 12.7669 17.8242H12.9849V18.3268H9.15754C8.3945 18.3268 7.6254 17.8908 7.23177 17.2307L5.524 14.3299Z" fill="#DE3F39"/>
</svg>
