<svg width="135" height="20" viewBox="0 0 135 20" fill="none" xmlns="http://www.w3.org/2000/svg">
<path d="M18.0257 0.271673L9.35517 12.8106L8.23467 19H3.67264L4.79314 12.8106L0.497899 0.271673H5.67353L7.91453 8.08848L12.9034 0.271673H18.0257ZM25.0934 19.2656C23.4998 19.2656 22.0833 18.9447 20.8438 18.3028C19.6043 17.6609 18.6415 16.7535 17.9554 15.5804C17.2914 14.4073 16.9594 13.0461 16.9594 11.4968C16.9594 9.39415 17.4574 7.47962 18.4534 5.75322C19.4494 4.02682 20.8217 2.67669 22.5702 1.70283C24.3187 0.706828 26.2665 0.208828 28.4134 0.208828C30.007 0.208828 31.4235 0.540828 32.663 1.20483C33.9246 1.84669 34.8984 2.75416 35.5846 3.92722C36.2707 5.10029 36.6138 6.46149 36.6138 8.01082C36.6138 10.1356 36.1047 12.0612 35.0866 13.7876C34.0906 15.4919 32.7072 16.8309 30.9366 17.8048C29.188 18.7787 27.2403 19.2656 25.0934 19.2656ZM25.8902 14.3852C26.8198 14.3852 27.6498 14.1085 28.3802 13.5552C29.1327 12.9797 29.7082 12.2493 30.1066 11.364C30.5271 10.4565 30.7374 9.51588 30.7374 8.54202C30.7374 7.43535 30.4386 6.58322 29.841 5.98562C29.2434 5.38802 28.4908 5.08922 27.5834 5.08922C26.6317 5.08922 25.7906 5.37695 25.0602 5.95242C24.3519 6.50575 23.7986 7.23615 23.4002 8.14362C23.0018 9.05108 22.8026 10.0028 22.8026 10.9988C22.8026 12.0833 23.0903 12.9244 23.6658 13.522C24.2413 14.0975 24.9827 14.3852 25.8902 14.3852ZM59.3132 0.474428L56.0596 19H50.3824L50.814 16.4768C50.0836 17.2957 49.1872 17.9597 48.1248 18.4688C47.0845 18.9557 45.9668 19.1992 44.7716 19.1992C42.9124 19.1992 41.4516 18.6791 40.3892 17.6388C39.3268 16.5764 38.7956 15.1045 38.7956 13.2232C38.7956 12.5149 38.851 11.8731 38.9616 11.2976L40.8872 0.474428H46.5312L44.7716 10.534C44.7052 10.8881 44.672 11.2312 44.672 11.5632C44.672 12.4928 44.9266 13.2121 45.4356 13.7212C45.9668 14.2081 46.6972 14.4516 47.6268 14.4516C48.6892 14.4516 49.5856 14.1417 50.316 13.522C51.0685 12.8801 51.5665 11.9727 51.81 10.7996L53.636 0.474428H59.3132ZM68.4707 3.82762C69.3339 2.72096 70.3188 1.85776 71.4255 1.23803C72.5543 0.596162 73.7273 0.275229 74.9447 0.275229L73.8823 6.28442H72.3219C70.9053 6.28442 69.7876 6.59429 68.9687 7.21402C68.1497 7.81162 67.6075 8.87402 67.3419 10.4012L65.8147 19H60.1375L63.3911 0.474428H69.0683L68.4707 3.82762ZM82.0406 19.2656C80.5798 19.2656 79.2629 19.0332 78.0898 18.5684C76.9389 18.1036 76.0314 17.4617 75.3674 16.6428C74.7034 15.8017 74.3714 14.8389 74.3714 13.7544C74.3714 13.5995 74.3936 13.3228 74.4378 12.9244H79.9158C79.8716 13.6105 80.0708 14.1639 80.5134 14.5844C80.9782 14.9828 81.6312 15.182 82.4722 15.182C83.1805 15.182 83.767 15.0492 84.2318 14.7836C84.6966 14.518 84.929 14.1417 84.929 13.6548C84.929 13.19 84.6745 12.8248 84.1654 12.5592C83.6785 12.2715 82.8596 11.9284 81.7086 11.53C80.5134 11.1316 79.5064 10.7443 78.6874 10.368C77.8906 9.96961 77.2045 9.40521 76.629 8.67482C76.0536 7.94442 75.7658 7.02589 75.7658 5.91922C75.7658 4.83469 76.0868 3.86082 76.7286 2.99762C77.3705 2.11229 78.2669 1.42616 79.4178 0.939228C80.5909 0.452295 81.941 0.208828 83.4682 0.208828C84.9954 0.208828 86.3234 0.463361 87.4522 0.972427C88.581 1.45936 89.4553 2.14549 90.075 3.03082C90.6948 3.91616 91.0046 4.91215 91.0046 6.01882L90.9714 6.51682H85.8254C85.8697 5.85282 85.6705 5.32162 85.2278 4.92322C84.7852 4.52482 84.1544 4.32562 83.3354 4.32562C82.6936 4.32562 82.1624 4.45842 81.7418 4.72402C81.3434 4.98962 81.1442 5.35482 81.1442 5.81962C81.1442 6.30655 81.4098 6.71602 81.941 7.04802C82.4944 7.35788 83.3465 7.71202 84.4974 8.11042C85.6926 8.50882 86.6776 8.90722 87.4522 9.30561C88.249 9.68188 88.9241 10.2241 89.4774 10.9324C90.0529 11.6185 90.3406 12.4817 90.3406 13.522C90.3406 14.7172 89.9754 15.7464 89.245 16.6096C88.5368 17.4728 87.5518 18.1368 86.2902 18.6016C85.0508 19.0443 83.6342 19.2656 82.0406 19.2656Z" fill="#233A6C"/>
<path d="M109.747 5.12716C109.551 6.22988 109.098 7.14584 108.386 7.87505C107.675 8.60427 106.821 9.11116 105.825 9.39573C106.714 9.59137 107.417 10.0271 107.933 10.703C108.449 11.3788 108.706 12.1703 108.706 13.0774C108.706 13.3619 108.68 13.6376 108.626 13.9044C108.36 15.4695 107.595 16.7145 106.332 17.6394C105.069 18.5465 103.46 19 101.503 19H92.7794L96.0875 0.271673H104.518C106.208 0.271673 107.515 0.618494 108.44 1.31213C109.365 2.00578 109.827 2.9662 109.827 4.19342C109.827 4.49577 109.8 4.80702 109.747 5.12716ZM102.277 7.87505C103.042 7.87505 103.655 7.70609 104.118 7.36816C104.58 7.03023 104.865 6.54113 104.971 5.90084C104.989 5.79413 104.998 5.65184 104.998 5.47399C104.998 4.9582 104.829 4.56692 104.491 4.30013C104.153 4.01556 103.655 3.87327 102.997 3.87327H100.009L99.3156 7.87505H102.277ZM104.091 13.2908C104.127 13.0774 104.144 12.9173 104.144 12.8106C104.144 12.2948 103.958 11.8946 103.584 11.61C103.211 11.3077 102.695 11.1565 102.037 11.1565H98.7287L97.9817 15.3717H101.343C102.126 15.3717 102.748 15.1939 103.211 14.8381C103.673 14.4824 103.967 13.9667 104.091 13.2908ZM118.235 0.271673L114.927 19H110.365L113.673 0.271673H118.235ZM123.756 15.265H131.813L131.146 19H117.913L118.527 15.5318L128.558 4.00667H120.554L121.221 0.271673H134.454L133.84 3.73988L123.756 15.265Z" fill="#D00000"/>
</svg>
